<svg width="50" height="50" viewBox="0 0 50 50" fill="none" xmlns="http://www.w3.org/2000/svg">
<circle cx="25" cy="25" r="25" fill="white"/>
<g clip-path="url(#clip0_123_20)">
<path d="M25.0418 7.05055C24.9127 7.09749 24.822 7.18054 24.7557 7.31053C24.4557 7.9009 23.8767 8.50571 23.09 9.04734C21.4557 10.1757 19.047 10.925 16.0871 11.2247C15.2464 11.3095 14.5296 11.3492 13.511 11.3673L12.7226 11.3817L12.6267 11.4305C12.5185 11.4865 12.4366 11.5731 12.3825 11.6923L12.3459 11.7753L12.3406 19.5964L12.3371 27.4193H10.6017C8.96039 27.4193 8.86621 27.4211 8.86621 27.4499C8.86621 27.4824 8.91156 27.7858 8.929 27.8742L8.93946 27.9248L6.47667 27.9284L4.01562 27.9338L5.04818 29.6219C5.61679 30.5498 6.08423 31.3226 6.08772 31.337C6.09121 31.3515 5.62725 32.1278 5.05516 33.0612L4.01737 34.7583L6.99993 34.7637C8.64121 34.7655 9.98249 34.7691 9.98423 34.7727C9.98423 34.7727 10.0017 34.8865 10.0226 35.0201L10.061 35.2638L12.2953 35.2692L14.5296 35.2728L14.765 35.5581C16.7709 37.9809 20.1249 40.476 24.0616 42.4746C24.9999 42.9513 25.0505 42.9729 25.2092 42.9729C25.3366 42.9711 25.3505 42.9675 25.6627 42.8195C26.0621 42.6317 27.2656 42.0052 27.7121 41.7543C31.1482 39.8243 33.8761 37.6957 35.6447 35.5671L35.8871 35.2728H38.0116H40.136L40.1447 35.2313C40.1499 35.2096 40.1674 35.0959 40.1848 34.9803L40.2145 34.7673L43.0993 34.7637L45.9825 34.7583L44.9866 33.0702C44.4389 32.1422 43.9854 31.3731 43.9819 31.3605C43.9767 31.3496 44.4267 30.5751 44.9778 29.6381C45.5307 28.7029 45.9825 27.9356 45.9825 27.932C45.9825 27.9284 44.9238 27.9248 43.6278 27.9248C41.7563 27.9248 41.2732 27.9194 41.2732 27.9013C41.2732 27.8905 41.2889 27.7821 41.3081 27.663C41.3273 27.5438 41.343 27.4409 41.343 27.4319C41.343 27.4247 40.6087 27.4193 39.7121 27.4193H38.0813L38.0778 19.5964C38.0726 12.3386 38.0709 11.7699 38.043 11.7121C37.9802 11.5749 37.9121 11.5009 37.7935 11.4395L37.6784 11.3817L36.89 11.3673C34.3749 11.3222 32.3028 11.0423 30.4767 10.5007C29.5121 10.2136 28.518 9.79117 27.7993 9.36509C26.8034 8.77472 25.9854 7.99659 25.6714 7.34303C25.6453 7.28886 25.5999 7.21664 25.5685 7.18415C25.4412 7.04332 25.2162 6.98555 25.0418 7.05055ZM25.3366 10.943C25.4482 10.9845 25.511 11.0513 25.5982 11.2156C25.7168 11.4413 25.8493 11.6164 26.0813 11.8584C27.2342 13.059 29.3534 13.8786 32.1075 14.1856C32.8348 14.265 33.5168 14.3083 34.4098 14.3264L35.0028 14.339L35.0831 14.3878C35.172 14.4419 35.2435 14.5394 35.2714 14.6459C35.2854 14.6965 35.2906 16.5886 35.2906 21.0678V27.4193H30.7174L26.1424 27.4174L26.2034 27.3687C26.2348 27.3416 26.3813 27.2225 26.5261 27.1051C26.7302 26.9354 26.8296 26.8686 26.9796 26.7946C27.4017 26.587 27.9773 26.4317 28.6278 26.3468C29.643 26.215 30.972 26.2259 32.1773 26.3757C32.3499 26.3974 32.5348 26.4154 32.5889 26.4136C32.7703 26.4118 32.936 26.2782 32.9866 26.0923C32.9988 26.0435 33.0057 25.6445 33.0057 24.8321V23.6459H32.5784H32.1511V24.5577V25.4694H32.0953C32.0639 25.4694 31.9156 25.4568 31.7674 25.4441C31.2057 25.39 30.7348 25.3737 29.9778 25.3846C28.9976 25.3972 28.4796 25.4495 27.7732 25.6066C27.3302 25.7041 26.868 25.8648 26.5435 26.0327C26.329 26.1446 26.2767 26.1825 25.968 26.4371C25.5232 26.8036 25.3749 26.8867 25.1813 26.874C24.9947 26.8614 24.8517 26.7729 24.3197 26.3378C23.8226 25.9316 22.9174 25.6283 21.7906 25.4893C21.1959 25.4152 21.018 25.4062 20.0813 25.4062C19.368 25.4062 19.0784 25.4134 18.7732 25.4387C18.5569 25.4568 18.3546 25.4748 18.3249 25.4802L18.2674 25.4911V23.9276V22.3641H17.84C17.5871 22.3641 17.4127 22.3713 17.4127 22.3803C17.4127 22.402 17.4406 22.4092 17.6011 22.4363L17.7267 22.458V23.052V23.6459H17.5697H17.4127V24.8411C17.4127 25.6102 17.4197 26.0616 17.4302 26.1049C17.4581 26.2042 17.5505 26.3198 17.643 26.3685C17.7476 26.4245 17.8156 26.4245 18.2674 26.3757C19.5982 26.2313 20.9656 26.2403 21.9825 26.401C22.6366 26.5057 23.1842 26.67 23.5697 26.8794C23.6412 26.9192 23.8069 27.0383 23.936 27.1448C24.0668 27.2514 24.1959 27.3561 24.2238 27.3777L24.2761 27.4174L19.7011 27.4193H15.1278L15.1313 21.0227L15.1366 14.6243L15.1889 14.5358C15.222 14.4816 15.2743 14.4275 15.3267 14.3932C15.4121 14.339 15.4139 14.339 15.7017 14.3354C16.872 14.3173 17.9203 14.2451 18.8046 14.1224C19.136 14.0754 19.7255 13.9743 19.9557 13.9238C20.0255 13.9093 20.0883 13.8967 20.0935 13.8967C20.0988 13.8967 20.0569 13.9472 20.0011 14.0104C19.8807 14.1422 19.8023 14.2867 19.7482 14.4744C19.7133 14.599 19.7098 14.655 19.7028 15.2092C19.6976 15.5396 19.6906 15.8104 19.6871 15.8104C19.6488 15.8104 18.8011 15.6263 18.4069 15.5324C18.1331 15.4674 17.8697 15.4132 17.8226 15.4132C17.711 15.4132 17.5732 15.4818 17.5086 15.5667C17.411 15.7003 17.4127 15.6786 17.4127 16.9695V18.1593L17.4964 18.1484C17.7738 18.1105 17.8714 18.0654 18.0249 17.9011C18.1261 17.7946 18.1488 17.7783 18.2046 17.7783H18.2674V17.0905V16.4026L18.3162 16.4152C18.4889 16.4604 19.2685 16.6265 19.4621 16.6608L19.6976 16.7005V18.0997V19.4971L20.111 20.3944C20.3377 20.8873 20.5296 21.2971 20.5383 21.3079C20.5453 21.3169 20.5523 19.8437 20.5523 18.0347C20.5523 14.5412 20.5488 14.6712 20.6307 14.6008C20.6761 14.5629 20.9586 14.5665 21.1366 14.608C21.3145 14.6495 21.6249 14.7615 21.8604 14.8662C22.5284 15.1641 23.5331 15.7761 24.3773 16.3954L24.5988 16.5579V17.1681V17.7783H24.7261C24.9005 17.7783 25.1517 17.8217 25.354 17.8849L25.5232 17.9372V17.8939C25.5232 17.8524 25.5267 17.8505 25.654 17.8505H25.7848V17.2096V16.5669L26.0412 16.3936C27.0337 15.722 28.2092 15.0883 28.9139 14.8445C29.3883 14.6802 29.7825 14.6423 29.8523 14.7525C29.8592 14.7633 29.8662 15.4367 29.8662 16.2473V17.7242H30.168C30.454 17.7242 30.4714 17.726 30.5534 17.7693C30.6005 17.7946 30.6581 17.8144 30.6807 17.8144H30.7209V17.2457C30.7209 16.9334 30.7243 16.677 30.7278 16.677C30.7313 16.677 31.0453 16.5994 31.4255 16.5055C31.8057 16.4116 32.1249 16.334 32.1337 16.334C32.1441 16.334 32.1511 16.603 32.1511 17.0832V17.8325H32.5784H33.0075L33.0023 16.7438L32.997 15.6552L32.9517 15.5667C32.8959 15.4511 32.7895 15.3681 32.6656 15.3392C32.5697 15.3175 32.5592 15.3194 31.6749 15.5378C31.1848 15.6588 30.768 15.7635 30.7523 15.7671C30.7226 15.7761 30.7209 15.7454 30.7209 15.2959C30.7209 15.0323 30.7121 14.7561 30.7017 14.6857C30.6371 14.2596 30.3842 13.9617 29.9883 13.8497C29.8209 13.801 29.4441 13.8046 29.2104 13.857C28.8476 13.9382 28.49 14.061 28.0087 14.2722C27.147 14.6495 25.9749 15.3266 25.3104 15.8321C25.2337 15.8899 25.1848 15.9169 25.1709 15.9061C25.1587 15.8989 25.0418 15.8104 24.9127 15.7093C24.2813 15.2183 23.4162 14.673 22.6714 14.2957C22.0139 13.9617 21.5081 13.7739 21.0755 13.7089L20.9273 13.6855L21.0319 13.6548C21.0895 13.6385 21.2935 13.5717 21.4854 13.5085C22.3104 13.2305 22.9924 12.8965 23.6011 12.4722C24.1243 12.1075 24.6354 11.5803 24.8081 11.2229C24.8918 11.0532 24.9703 10.9773 25.1046 10.934C25.1726 10.9141 25.2633 10.9177 25.3366 10.943ZM27.0127 29.0784C27.065 29.1813 27.2709 29.1741 27.2953 29.0676C27.304 29.0333 27.318 29.0261 27.3738 29.0261C27.4557 29.0261 27.4627 29.0604 27.4034 29.1525C27.3337 29.2572 27.2778 29.2879 27.154 29.2879C27.0302 29.2879 26.9743 29.2572 26.9063 29.1525C26.847 29.064 26.8523 29.0261 26.9273 29.0261C26.9761 29.0261 26.9918 29.0351 27.0127 29.0784ZM14.4476 29.4431C14.5714 29.4973 14.7267 29.6869 14.7267 29.7807C14.7267 29.7898 14.6813 29.8078 14.6273 29.8187C14.5714 29.8295 14.5086 29.8439 14.4877 29.8493C14.4581 29.8584 14.4476 29.853 14.4476 29.8313C14.4476 29.815 14.4197 29.7699 14.3848 29.732C14.2627 29.5912 14.0395 29.6002 13.9174 29.7482C13.8581 29.8223 13.8371 29.9089 13.8371 30.0913C13.8371 30.3404 13.8842 30.4578 14.0116 30.5246C14.1825 30.6148 14.3604 30.5426 14.4424 30.3513L14.4738 30.2772L14.6011 30.3151C14.7406 30.3567 14.7441 30.3639 14.6935 30.4812C14.6464 30.586 14.5592 30.6816 14.4581 30.7376C14.3761 30.7827 14.3517 30.7864 14.1685 30.7864C13.9854 30.7864 13.961 30.7827 13.8807 30.7376C13.6592 30.6166 13.5424 30.4036 13.5406 30.1147C13.5389 29.6507 13.8075 29.3691 14.2243 29.3962C14.3081 29.4016 14.3935 29.4197 14.4476 29.4431ZM23.5104 29.4395C23.5575 29.4612 23.6255 29.5099 23.6639 29.546C23.7249 29.6074 23.7947 29.7284 23.7964 29.7771C23.7964 29.7934 23.5331 29.8674 23.5278 29.853C23.472 29.7031 23.3709 29.6309 23.2278 29.6345C22.9976 29.6399 22.8947 29.806 22.9104 30.1508C22.9191 30.3621 22.9645 30.4596 23.0813 30.5192C23.2592 30.613 23.4284 30.548 23.5121 30.3513L23.5435 30.2772L23.6709 30.3151C23.8104 30.3567 23.8139 30.3639 23.7633 30.4812C23.7162 30.586 23.629 30.6816 23.5278 30.7376C23.4459 30.7827 23.4214 30.7864 23.2383 30.7864C23.0621 30.7864 23.029 30.7809 22.9592 30.743C22.715 30.6112 22.5895 30.3513 22.6156 30.0281C22.6418 29.7103 22.804 29.4901 23.0639 29.4142C23.193 29.3781 23.3988 29.389 23.5104 29.4395ZM30.4627 29.407C30.8046 29.4828 30.9842 29.7555 30.9616 30.1635C30.9494 30.3657 30.89 30.5083 30.7697 30.6257C30.6284 30.7611 30.5569 30.7864 30.3023 30.7864C30.0982 30.7864 30.0773 30.7827 29.9848 30.7358C29.8383 30.6618 29.7197 30.5173 29.6726 30.3585C29.6203 30.1797 29.6307 29.9107 29.6953 29.7627C29.8226 29.4774 30.1313 29.3348 30.4627 29.407ZM12.9459 29.4359C12.9546 29.454 13.0767 29.7573 13.218 30.1093C13.3592 30.4614 13.4778 30.7557 13.4813 30.7629C13.4866 30.7719 13.4203 30.7773 13.3348 30.7773H13.1796L13.122 30.6239L13.0645 30.4704H12.7924H12.5203L12.4662 30.6185L12.4121 30.7683L12.2604 30.7737C12.1732 30.7773 12.1104 30.7719 12.1139 30.7629C12.1156 30.7539 12.236 30.4433 12.3807 30.075L12.6406 29.4052H12.7854C12.904 29.4052 12.9319 29.4106 12.9459 29.4359ZM15.9127 29.5226V29.6381L15.7174 29.6435L15.5203 29.6489L15.515 30.2122L15.5116 30.7773H15.372H15.2325V30.2086V29.6399H15.0319H14.8313V29.5226V29.4052H15.372H15.9127V29.5226ZM16.9243 29.454C17.0168 29.4955 17.104 29.593 17.1336 29.6869C17.1476 29.7266 17.1528 29.8024 17.1476 29.8782C17.1354 30.0407 17.0778 30.1328 16.9418 30.205C16.8563 30.2501 16.8214 30.2556 16.6156 30.2664L16.3836 30.2772V30.5282V30.7773H16.2441H16.1046V30.0895V29.3998L16.4761 29.4088C16.7953 29.416 16.8581 29.4233 16.9243 29.454ZM18.1749 30.0822C18.3214 30.4487 18.4418 30.7557 18.4418 30.7629C18.4418 30.7719 18.3755 30.7773 18.2953 30.7773H18.1488L18.0895 30.6239L18.0319 30.4704H17.7598H17.4877L17.4319 30.6239L17.3743 30.7773H17.2278C17.1476 30.7773 17.0813 30.7737 17.0813 30.7683C17.0813 30.7629 17.1999 30.4542 17.3447 30.0804L17.6098 29.4034L17.7581 29.4088L17.9063 29.4142L18.1749 30.0822ZM18.9616 29.6038C19.0313 29.7085 19.0959 29.7934 19.1046 29.7934C19.1133 29.7934 19.1778 29.7085 19.2476 29.6038L19.3767 29.4142L19.5284 29.4088C19.6261 29.4052 19.6802 29.4106 19.6802 29.4233C19.6802 29.4323 19.593 29.5731 19.4866 29.7356C19.3784 29.8963 19.2877 30.0407 19.2842 30.0552C19.2807 30.0696 19.3802 30.2357 19.5057 30.4235C19.6296 30.613 19.7325 30.7683 19.7325 30.7719C19.7325 30.7755 19.6575 30.7773 19.5668 30.7773H19.4011L19.2581 30.5517C19.1778 30.4289 19.1098 30.326 19.1046 30.326C19.0993 30.326 19.0296 30.4271 18.9476 30.5517L18.8028 30.7773H18.6389C18.5499 30.7773 18.4767 30.7737 18.4767 30.7683C18.4767 30.7629 18.5796 30.6058 18.7034 30.4181C18.829 30.2303 18.9302 30.0732 18.9302 30.066C18.9302 30.0606 18.8412 29.918 18.7331 29.7519C18.6232 29.5858 18.529 29.4395 18.522 29.4269C18.5116 29.4088 18.543 29.4052 18.6703 29.4088L18.8325 29.4142L18.9616 29.6038ZM20.8435 30.0804C20.99 30.4469 21.1104 30.7539 21.1104 30.7629C21.1104 30.7701 21.0441 30.7773 20.9639 30.7773H20.8174L20.7581 30.6239L20.7005 30.4704H20.4284H20.1563L20.104 30.6185L20.0517 30.7683L19.8982 30.7737C19.7796 30.7773 19.7482 30.7737 19.7552 30.7557C19.7587 30.743 19.879 30.4325 20.0203 30.0678L20.2767 29.4034L20.4267 29.4088L20.5767 29.4142L20.8435 30.0804ZM21.5464 29.676V29.9468H21.8168H22.0854L22.0906 29.6796L22.0959 29.4142L22.2319 29.4088L22.3662 29.4034V30.0913V30.7773H22.2267H22.0871V30.4794V30.1815H21.8168H21.5464V30.4794V30.7773H21.4069H21.2674V30.1039C21.2674 29.732 21.2726 29.4233 21.2796 29.4178C21.2848 29.4106 21.3476 29.4052 21.4191 29.4052H21.5464V29.676ZM24.3337 29.6977C24.3371 29.9396 24.3424 29.9829 24.365 29.9829C24.4278 29.9829 24.4662 29.9342 24.5534 29.7428C24.604 29.6309 24.6685 29.519 24.6964 29.4919C24.7505 29.4395 24.8587 29.407 24.979 29.4052H25.054L25.0488 29.5081L25.0435 29.611L24.9738 29.6183C24.8674 29.6273 24.8342 29.6616 24.7697 29.8223C24.7383 29.9035 24.6895 29.9956 24.6598 30.0245C24.6197 30.066 24.6145 30.0804 24.6337 30.0877C24.6982 30.1093 24.8081 30.2628 24.9267 30.5011C24.9947 30.6401 25.0523 30.7593 25.0523 30.7665C25.0523 30.7719 24.9825 30.7773 24.8953 30.7773H24.74L24.6162 30.5282C24.4749 30.2429 24.4505 30.2068 24.386 30.1906L24.3371 30.1779V30.4776V30.7773H24.1976H24.0581V30.0913V29.4034L24.1941 29.4088L24.3284 29.4142L24.3337 29.6977ZM25.4883 29.8602V30.3151L25.6523 30.0461C25.743 29.8963 25.8668 29.6923 25.9313 29.5894L26.0447 29.4052H26.1773H26.3081V30.0913V30.7773H26.1773H26.0464L26.043 30.3476L26.0377 29.918L25.7761 30.3422L25.5127 30.7683L25.3697 30.7737L25.2267 30.7791V30.0913V29.4052H25.3575H25.4883V29.8602ZM26.8697 29.8566L26.8749 30.3079L27.147 29.8602L27.4174 29.4142H27.5569H27.6947L27.6999 30.0949L27.7034 30.7773H27.5726H27.4418V30.3422C27.4418 30.1039 27.4348 29.9125 27.4278 29.918C27.4191 29.9234 27.2953 30.1184 27.1523 30.3513L26.8924 30.7755L26.7493 30.7773H26.6046V30.0913V29.4052H26.7354H26.8662L26.8697 29.8566ZM28.8023 29.6941V29.9829H28.8424C28.9017 29.9829 28.947 29.9234 29.0185 29.75C29.1284 29.4847 29.1912 29.4287 29.397 29.4106L29.5174 29.3998V29.5009V29.602L29.4528 29.6128C29.329 29.6327 29.3046 29.6562 29.2348 29.8295C29.1982 29.9216 29.1476 30.0118 29.1214 30.0353C29.0918 30.0624 29.0813 30.0822 29.0935 30.0859C29.179 30.1165 29.254 30.2231 29.4197 30.5462L29.5366 30.7773H29.3709H29.2052L29.09 30.5354C28.9714 30.2808 28.8999 30.1815 28.8389 30.1815C28.804 30.1815 28.8023 30.1888 28.8023 30.4794V30.7773H28.6627H28.5232V30.0913V29.4052H28.6627H28.8023V29.6941ZM32.1999 30.0949L32.2034 30.7773H32.0639H31.9243V30.2086V29.6381L31.7203 29.6435L31.5145 29.6489L31.5057 30.1274C31.4988 30.539 31.4935 30.613 31.4656 30.6636C31.415 30.7611 31.286 30.8062 31.122 30.7845L31.0348 30.7719V30.6672V30.5625L31.1168 30.5571C31.2441 30.548 31.2441 30.548 31.2441 29.9324V29.4052L31.7203 29.4088L32.1947 29.4142L32.1999 30.0949ZM33.5464 30.0913V30.7773H33.4069H33.2674V30.2086V29.6399H33.0685H32.8714L32.8627 30.1039C32.854 30.6094 32.8418 30.6726 32.7546 30.7322C32.6883 30.7773 32.5749 30.799 32.4703 30.7845L32.3778 30.7737V30.6672V30.5607H32.4546C32.5906 30.5607 32.5871 30.5769 32.5871 29.9541V29.4052H33.0668H33.5464V30.0913ZM34.8546 29.5226V29.6399H34.4883H34.122V29.7934V29.9468H34.4621H34.8023V30.0642V30.1815H34.4621H34.122V30.3621V30.5426H34.497H34.872V30.66V30.7773H34.3575H33.843V30.0913V29.4052H34.3488H34.8546V29.5226ZM36.1767 29.9775L36.1802 30.5426H36.2412H36.304L36.2988 30.808L36.2935 31.0752H36.1802H36.0668L36.0616 30.9254L36.0563 30.7773H35.6307H35.2034V30.9308V31.0842H35.09H34.9767V30.8134V30.5426H35.036C35.0883 30.5426 35.097 30.5354 35.1214 30.465C35.186 30.2917 35.2052 30.1527 35.2139 29.8024C35.2191 29.6092 35.2261 29.4395 35.2313 29.4269C35.2366 29.4088 35.3395 29.4052 35.704 29.4088L36.1714 29.4142L36.1767 29.9775ZM36.6825 29.4485C36.7523 29.4865 36.7924 29.546 36.8935 29.7717C36.9685 29.9396 37.0017 29.9829 37.054 29.9829C37.061 29.9829 37.0714 29.8548 37.0732 29.6977L37.0784 29.4142L37.2145 29.4088L37.3488 29.4034V29.6941C37.3488 29.9631 37.3505 29.9829 37.3802 29.9829C37.429 29.9829 37.4604 29.9378 37.5494 29.7392C37.668 29.4738 37.7203 29.4287 37.9261 29.4106L38.0482 29.3998L38.043 29.5063C38.0395 29.5749 38.0307 29.6128 38.0168 29.6146C38.0046 29.6164 37.9697 29.6183 37.9418 29.6201C37.8668 29.6219 37.8162 29.6832 37.7604 29.8349C37.7325 29.9089 37.6871 29.9902 37.6575 30.0227C37.6156 30.066 37.6087 30.0804 37.6278 30.0877C37.6941 30.1093 37.8023 30.2628 37.9261 30.5119L38.0587 30.7773H37.8964H37.7342L37.6069 30.521C37.4813 30.2628 37.4255 30.1815 37.3749 30.1815C37.3523 30.1815 37.3488 30.2231 37.3488 30.4794V30.7773H37.2092H37.0697V30.4794C37.0697 30.27 37.0645 30.1815 37.0505 30.1815C37.0052 30.1815 36.9145 30.3151 36.8081 30.539L36.6964 30.7773H36.5342H36.372L36.4697 30.5733C36.6005 30.3025 36.7034 30.1418 36.7662 30.1093C36.7941 30.0949 36.8203 30.0822 36.8238 30.0786C36.8273 30.0768 36.8063 30.0534 36.7784 30.0299C36.7488 30.0046 36.7156 29.9577 36.7034 29.9252C36.6023 29.658 36.5778 29.6255 36.4557 29.6164L36.3895 29.6128V29.5063V29.3998L36.5098 29.4106C36.5761 29.416 36.6546 29.4341 36.6825 29.4485ZM29.2209 31.9599C29.261 32.0682 29.4842 32.0646 29.5104 31.9563C29.5191 31.922 29.5331 31.9147 29.5889 31.9147C29.6639 31.9147 29.6674 31.9238 29.6325 32.0104C29.5575 32.1964 29.2959 32.2415 29.1546 32.0899C29.1249 32.0574 29.0935 32.005 29.0883 31.9725C29.0778 31.9165 29.0778 31.9147 29.1406 31.9147C29.193 31.9147 29.2069 31.9238 29.2209 31.9599ZM17.5383 32.3336C17.6447 32.3841 17.7302 32.4672 17.779 32.5665C17.8313 32.6712 17.8261 32.682 17.7145 32.7073C17.6587 32.72 17.5976 32.7344 17.5784 32.738C17.5505 32.7452 17.5383 32.7344 17.5209 32.6838C17.4563 32.4997 17.172 32.4636 17.0255 32.6207C16.9453 32.7073 16.9174 32.8283 16.9278 33.0395C16.9383 33.2399 16.9871 33.3464 17.097 33.4078C17.2732 33.5035 17.4459 33.4367 17.5296 33.2399L17.561 33.1641L17.6918 33.2056C17.84 33.2526 17.8418 33.2544 17.765 33.4024C17.6586 33.6064 17.486 33.6931 17.2156 33.6804C17.022 33.6714 16.9209 33.6245 16.8005 33.4909C16.6767 33.3555 16.6383 33.2327 16.6383 32.989C16.6383 32.8283 16.647 32.7705 16.6784 32.6875C16.7499 32.4961 16.8982 32.3553 17.0813 32.3029C17.2174 32.265 17.4197 32.2776 17.5383 32.3336ZM28.1935 32.3228C28.4587 32.4311 28.593 32.655 28.593 32.989C28.593 33.2905 28.4726 33.5089 28.2476 33.6245C28.1552 33.6714 28.1342 33.675 27.9302 33.675C27.6755 33.675 27.6023 33.6497 27.461 33.5125C27.3389 33.3952 27.2813 33.2526 27.2709 33.0431C27.2517 32.6405 27.4296 32.3679 27.7627 32.2939C27.8656 32.2704 28.1028 32.2867 28.1935 32.3228ZM11.561 32.3498C11.779 32.4618 11.8261 32.6911 11.6674 32.8644C11.6046 32.9312 11.5959 32.9492 11.6203 32.9565C11.6848 32.9799 11.7668 33.0612 11.7982 33.1316C11.8575 33.2688 11.8313 33.4096 11.7232 33.5324C11.615 33.6534 11.554 33.666 11.0778 33.666H10.6802V32.9781V32.2885L11.0778 32.2975C11.4581 32.3047 11.4807 32.3065 11.561 32.3498ZM12.3546 32.5737V32.8536H12.6214C12.7976 32.8554 12.9092 32.8626 12.9528 32.8788C13.1168 32.9402 13.2127 33.0828 13.2127 33.267C13.2127 33.3843 13.1813 33.4638 13.0993 33.5541C13.0086 33.6516 12.9267 33.666 12.4732 33.666H12.0755V32.9799V32.2939H12.215H12.3546V32.5737ZM13.6592 32.9835L13.6627 33.666H13.5145H13.3662V32.9926C13.3662 32.6207 13.3714 32.3119 13.3784 32.3047C13.3854 32.2975 13.4499 32.2957 13.5232 32.2975L13.654 32.3029L13.6592 32.9835ZM14.2069 32.5737C14.2121 32.8499 14.2121 32.8536 14.2592 32.9023C14.3011 32.9438 14.3255 32.9529 14.4284 32.9583C14.5104 32.9637 14.5767 32.9565 14.6377 32.9348L14.7267 32.9059L14.7302 32.6044L14.7354 32.3029L14.8714 32.2975L15.0057 32.2921V32.9799V33.666H14.8662H14.7267V33.3988V33.1316L14.6098 33.1623C14.3691 33.2273 14.1371 33.1839 14.0238 33.054C13.9383 32.9565 13.9243 32.8879 13.9243 32.5683V32.2939H14.0621H14.2017L14.2069 32.5737ZM15.5639 32.7488L15.5656 33.2056L15.6249 33.1063C15.6563 33.0522 15.7802 32.8481 15.8988 32.655L16.1133 32.3029H16.2528H16.3924L16.3976 32.9835L16.4011 33.666H16.2616H16.122V33.2291V32.794L15.8552 33.2255L15.5883 33.657L15.4453 33.6624L15.3023 33.6678V32.9799V32.2939H15.4331H15.5639V32.7488ZM19.0837 32.9835L19.0871 33.666H18.9476H18.8081L18.8046 33.1009L18.7993 32.5376L18.5953 32.5322L18.3912 32.5268L18.386 33.0106C18.3807 33.4457 18.3773 33.4999 18.3476 33.5504C18.2883 33.6534 18.1749 33.6931 18.0005 33.6732L17.8993 33.6606L17.9046 33.5595L17.9098 33.4584L17.9883 33.4493C18.0319 33.4439 18.0773 33.4331 18.0895 33.4259C18.1052 33.415 18.1104 33.2814 18.1104 32.8644C18.1104 32.5647 18.1156 32.3119 18.1226 32.3065C18.1296 32.2993 18.3459 32.2957 18.6057 32.2975L19.0784 32.3029L19.0837 32.9835ZM19.6313 32.747L19.6366 33.202L19.9087 32.7525L20.1825 32.3029H20.3185H20.4563L20.4616 32.9835L20.465 33.666H20.3342H20.2034V33.2273C20.2017 32.8319 20.1999 32.794 20.1755 32.8265C20.1616 32.8463 20.0377 33.0431 19.9017 33.2634L19.654 33.666H19.511H19.3662V32.9926C19.3662 32.6207 19.3714 32.3119 19.3784 32.3065C19.3837 32.2993 19.443 32.2939 19.5075 32.2939H19.6278L19.6313 32.747ZM21.7383 32.4112V32.5286H21.5377H21.3371V33.0973V33.666H21.1976H21.0581V33.0973V32.5286H20.8575H20.6569V32.4112V32.2939H21.1976H21.7383V32.4112ZM22.9418 32.4112V32.5286H22.5755H22.2092V32.682V32.8355H22.5493H22.8895V32.9529V33.0702H22.5493H22.2092V33.2507V33.4313H22.5842H22.9592V33.5486V33.666H22.4447H21.9302V32.9799V32.2939H22.436H22.9418V32.4112ZM24.2674 32.9799V33.666H24.1278H23.9883V33.0973V32.5268L23.7842 32.5322L23.5784 32.5376L23.5697 33.016C23.5627 33.4277 23.5575 33.5017 23.5296 33.5523C23.479 33.6497 23.3499 33.6949 23.186 33.6732L23.0988 33.6606V33.5559V33.4493H23.1755C23.3081 33.4493 23.3081 33.4511 23.3081 32.8319V32.2939H23.7877H24.2674V32.9799ZM24.8395 32.5773L24.8447 32.8518L25.1273 32.8572C25.3906 32.8626 25.4168 32.8662 25.4953 32.9077C25.5441 32.9348 25.6017 32.9854 25.6348 33.0305C25.6854 33.1045 25.6889 33.1208 25.6889 33.2598C25.6889 33.3988 25.6854 33.4168 25.6366 33.4891C25.6069 33.5306 25.5476 33.5866 25.5057 33.6118C25.429 33.6552 25.4185 33.657 24.9964 33.6624L24.5639 33.6696V32.9799V32.2921L24.6999 32.2975L24.8342 32.3029L24.8395 32.5773ZM26.2174 32.5683L26.2226 32.8355H26.4825H26.7424L26.7476 32.5683L26.7528 32.3029H26.8924H27.0319L27.0371 32.9835L27.0406 33.666H26.8924H26.7441V33.3681V33.0702H26.4825H26.2209V33.3681V33.666H26.0813H25.9418V32.9799V32.2921L26.0778 32.2975L26.2121 32.3029L26.2174 32.5683ZM29.0848 32.7452L29.09 33.1948L29.3604 32.7488L29.6325 32.3029H29.7703H29.9098L29.915 32.9835L29.9185 33.666H29.7877H29.6569V33.2273C29.6552 32.812 29.6534 32.7922 29.6255 32.8283C29.6098 32.8481 29.486 33.0449 29.3517 33.2652L29.1075 33.6642L28.9645 33.666H28.8197V32.9799V32.2939H28.9505H29.0813L29.0848 32.7452ZM31.729 32.4148L31.7342 32.5268L31.5284 32.5322L31.3226 32.5376L31.3174 33.1009L31.3139 33.666H31.1743H31.0348V33.0973V32.5286H30.8342H30.6337V32.4112V32.2939L31.1796 32.2975L31.7238 32.3029L31.729 32.4148ZM32.9185 32.4112V32.5286H32.5523H32.186V32.682V32.8355H32.5261H32.8662V32.9529V33.0702H32.5261H32.186V33.2507V33.4313H32.5697H32.9534V33.5486V33.666H32.4302H31.9069V32.9799V32.2939H32.4127H32.9185V32.4112ZM33.5464 32.4925C33.618 32.6008 33.6825 32.6911 33.6877 32.6911C33.6947 32.6911 33.7557 32.6044 33.8273 32.4997C33.897 32.395 33.9633 32.3047 33.9738 32.2993C33.986 32.2957 34.0592 32.2939 34.1377 32.2975L34.2807 32.3029L34.0714 32.6225C33.9546 32.7994 33.8604 32.9474 33.8604 32.9529C33.8604 32.9601 33.9633 33.119 34.0871 33.3067C34.2127 33.4945 34.3139 33.6534 34.3139 33.657C34.3139 33.6624 34.2406 33.666 34.1517 33.666H33.9895L33.8412 33.4403C33.761 33.3175 33.6912 33.2164 33.686 33.2164C33.6807 33.2164 33.611 33.3175 33.5307 33.4403L33.3842 33.666H33.2203C33.1313 33.666 33.0581 33.6624 33.0581 33.6588C33.0581 33.6534 33.161 33.4981 33.2848 33.3121C33.4104 33.1262 33.5116 32.9655 33.5116 32.9565C33.5116 32.9474 33.4209 32.803 33.311 32.6351C33.2011 32.4672 33.1104 32.321 33.1104 32.3119C33.1104 32.3011 33.1767 32.2939 33.2639 32.2939H33.4156L33.5464 32.4925ZM34.7499 32.5647V32.8355H35.0203H35.2906V32.5647V32.2939H35.4302H35.5697V32.9799V33.666H35.4302H35.2906V33.3681V33.0702H35.0203H34.7499V33.3681V33.666H34.6104H34.4709V32.9799V32.2939H34.6104H34.7499V32.5647ZM36.1278 32.7434L36.1366 33.1858L36.4069 32.7398L36.6773 32.2939H36.8133H36.9476V32.9799V33.666H36.8168H36.686L36.6825 33.2327L36.6773 32.8012L36.4121 33.2291L36.1488 33.657L36.0075 33.6624L35.8662 33.6678V32.9799V32.2921L35.9935 32.2975L36.1191 32.3029L36.1278 32.7434ZM37.5232 32.5827V32.8716H37.5633C37.6226 32.8716 37.668 32.812 37.7395 32.6387C37.8493 32.3733 37.9121 32.3173 38.118 32.2993L38.2383 32.2885V32.3896V32.4907L38.1738 32.5015C38.0499 32.5214 38.0255 32.5448 37.9557 32.7182C37.9191 32.8102 37.8685 32.9005 37.8424 32.924C37.8127 32.951 37.8023 32.9709 37.8145 32.9745C37.8999 33.0052 37.9767 33.1135 38.1389 33.4349L38.2557 33.666H38.09H37.9244L37.811 33.4241C37.6906 33.1695 37.6209 33.0702 37.5598 33.0702C37.5249 33.0702 37.5232 33.0774 37.5232 33.3681V33.666H37.3837H37.2441V32.9799V32.2939H37.3837H37.5232V32.5827ZM38.6778 32.7452L38.6831 33.1984L38.9552 32.7506L39.2273 32.3029H39.365H39.5028L39.5081 32.9835L39.5116 33.666H39.3807H39.2499V33.2309C39.2499 32.9926 39.243 32.8012 39.236 32.8066C39.2273 32.812 39.1034 33.007 38.9604 33.2399L38.7005 33.666H38.5575H38.4127V32.9926C38.4127 32.6207 38.418 32.3119 38.4249 32.3065C38.4302 32.2993 38.4895 32.2939 38.554 32.2939H38.6744L38.6778 32.7452ZM31.3488 35.28C31.3488 35.2927 30.6895 35.8162 30.4243 36.0148C29.0098 37.0764 27.2726 38.1272 25.5668 38.9523C25.3453 39.0588 25.3121 39.0696 25.2092 39.0714C25.1046 39.0714 25.0732 39.0606 24.8168 38.9378C24.4296 38.7537 23.5296 38.2806 23.09 38.0315C22.1116 37.4754 21.154 36.8634 20.343 36.2766C19.9366 35.9841 19.0697 35.3053 19.0697 35.28C19.0697 35.2764 21.8325 35.2728 25.2092 35.2728C28.586 35.2728 31.3488 35.2764 31.3488 35.28Z" fill="black"/>
<path d="M30.0928 18.8435V19.4574H30.2114H30.3282L30.398 19.2985C30.4538 19.1721 30.4922 19.1161 30.5986 19.0042C30.7067 18.8905 30.7521 18.858 30.8602 18.811C31.0451 18.7334 31.23 18.7009 31.5282 18.6955L31.7846 18.6901V20.6489C31.7846 21.9633 31.7777 22.6295 31.7654 22.6764C31.7445 22.7541 31.6573 22.8299 31.5422 22.8696L31.4707 22.8931V23.0176V23.1404H32.2817H33.0928L33.091 23.0176V22.8967L32.9672 22.8353C32.7614 22.7342 32.7788 22.949 32.7788 20.658V18.6901L33.0527 18.6955C33.3841 18.7009 33.4974 18.7189 33.6614 18.7966C33.8654 18.8959 34.1271 19.1865 34.2073 19.4068C34.2248 19.4556 34.23 19.4574 34.3486 19.4574H34.4707L34.4672 18.8471L34.462 18.2387L34.3556 18.2333C34.2736 18.2297 34.216 18.2405 34.1114 18.2784L33.9736 18.329H32.2817H30.5899L30.4573 18.2784C30.3631 18.2441 30.2934 18.2297 30.2096 18.2297H30.0928V18.8435Z" fill="black"/>
<path d="M18.2412 18.3759C18.072 18.5222 17.8575 18.6124 17.6185 18.6395L17.5174 18.6503V18.7695V18.8887L17.6046 18.8923C17.6534 18.8923 17.7162 18.9085 17.7476 18.9284C17.8017 18.9609 17.8052 18.9699 17.8104 19.0764C17.8139 19.1396 17.8069 19.2335 17.7965 19.2822C17.7738 19.3924 16.4098 22.3984 16.3104 22.5591C16.2267 22.6927 16.0767 22.8407 15.9912 22.8714L15.9302 22.8949V23.0176V23.1404H16.5755H17.2209V23.0158V22.8913L17.1459 22.8804C17.0342 22.8624 16.8999 22.7902 16.8476 22.7216C16.7534 22.5934 16.7674 22.4923 16.9296 22.0969L17.0342 21.8405H18.0842H19.1342L19.2424 22.0752C19.4203 22.4616 19.4308 22.5212 19.3592 22.6818C19.3087 22.7938 19.2232 22.866 19.1203 22.884L19.0435 22.8967L19.0383 23.0194L19.0331 23.1404H19.9767H20.9185V23.014C20.9185 22.9436 20.9116 22.8877 20.9029 22.8877C20.8662 22.8877 20.6482 22.6529 20.5627 22.5212C20.4389 22.328 20.3255 22.086 19.3749 20.0207L18.5744 18.2838L18.461 18.2856C18.3494 18.2875 18.3424 18.2893 18.2412 18.3759ZM18.5255 20.528C18.7575 21.0461 18.9476 21.4758 18.9476 21.483C18.9476 21.4921 18.5622 21.4975 18.0912 21.4975C17.2488 21.4975 17.2366 21.4975 17.2418 21.4614C17.2505 21.4 18.0668 19.5837 18.0842 19.5837C18.0947 19.5855 18.2918 20.0098 18.5255 20.528Z" fill="black"/>
<path d="M18.0613 20.8566C18.0404 20.9017 18.0229 20.9468 18.0229 20.9559C18.0229 20.9667 18.0596 20.9739 18.1032 20.9739C18.1764 20.9739 18.1817 20.9721 18.1695 20.9324C18.1642 20.9107 18.145 20.8656 18.1293 20.8331L18.0997 20.7735L18.0613 20.8566Z" fill="black"/>
<path d="M24.4154 18.3127C24.0561 18.3958 23.866 18.6215 23.6044 19.2696C23.4649 19.6181 23.3096 19.8798 23.1596 20.0134C23.0253 20.1362 22.8055 20.2156 22.598 20.2156H22.4881V19.5928C22.4881 19.21 22.4951 18.9356 22.5073 18.8796C22.5369 18.7388 22.6189 18.6576 22.7899 18.6016C22.8143 18.5944 22.8195 18.5709 22.8195 18.4734V18.3561H21.9997H21.1782L21.1835 18.4752L21.1887 18.5962L21.2585 18.6179C21.3614 18.6485 21.4119 18.6883 21.4608 18.7749L21.5026 18.8526V20.7482C21.5026 22.523 21.5009 22.6475 21.4712 22.7017C21.4259 22.7884 21.3544 22.8497 21.2672 22.8768L21.1887 22.9003L21.1835 23.0213L21.1782 23.1404H21.9997H22.8195V23.0177V22.8949L22.7375 22.8732C22.6224 22.8407 22.5335 22.7432 22.5073 22.6205C22.4951 22.5555 22.4881 22.2088 22.4881 21.5517V20.5767H22.6154C22.9852 20.5767 23.2294 20.7446 23.4055 21.1184C23.5172 21.3531 23.5869 21.5697 23.6654 21.9308C23.7352 22.2503 23.7945 22.4489 23.8695 22.6168C23.9358 22.7631 24.1416 22.9779 24.2968 23.0646C24.5776 23.2199 25.066 23.256 25.3887 23.1476L25.4707 23.1188V22.987V22.8552L25.3957 22.8443C25.2753 22.8263 25.155 22.7559 25.059 22.6493C24.9143 22.4905 24.8672 22.3713 24.7364 21.8405C24.6038 21.2971 24.5183 21.0931 24.3457 20.9107C24.1102 20.6652 23.8067 20.5099 23.4474 20.4522C23.1858 20.4088 23.1823 20.4052 23.3829 20.3077C23.6375 20.185 23.7492 20.0784 24.0474 19.674C24.3387 19.2804 24.4521 19.1902 24.6352 19.2082C24.7399 19.2191 24.8026 19.2624 24.8567 19.3635L24.8968 19.4393H25.0102H25.1218V18.8905V18.3416L25.0311 18.32C24.8794 18.2838 24.555 18.2802 24.4154 18.3127Z" fill="black"/>
<path d="M26.015 18.4734L26.0202 18.5944L26.0883 18.6179C26.1842 18.6522 26.24 18.6991 26.2853 18.7821L26.3255 18.8526V20.7446C26.3255 22.7829 26.329 22.68 26.24 22.7866C26.2034 22.8299 26.0935 22.8877 26.0464 22.8877C26.015 22.8877 26.0115 22.8985 26.0115 23.0158V23.1422L27.229 23.135C28.5633 23.1278 28.654 23.1224 28.9557 23.0158C29.1423 22.949 29.2662 22.8714 29.4214 22.7216C29.622 22.5284 29.704 22.3316 29.7214 22.003C29.7406 21.5896 29.601 21.2592 29.301 21.0154C29.09 20.8457 28.8912 20.7627 28.5109 20.6923C28.4865 20.6869 28.4708 20.6706 28.4708 20.6526C28.4708 20.6273 28.4952 20.6128 28.5633 20.5966C28.6941 20.5623 28.9365 20.4504 29.0377 20.3781C29.1528 20.2969 29.2853 20.1525 29.3551 20.0315C29.465 19.8437 29.5121 19.5151 29.4633 19.2732C29.4336 19.1234 29.322 18.9013 29.2138 18.7785C29.0917 18.6377 28.9609 18.5474 28.783 18.4806C28.4935 18.3705 28.4673 18.3687 27.1836 18.3615L26.0098 18.3543L26.015 18.4734ZM27.8534 18.7442C28.2092 18.8146 28.4272 19.0331 28.49 19.3761C28.5144 19.5115 28.5005 19.7986 28.4638 19.9196C28.3993 20.1362 28.2196 20.3294 28.0016 20.4179C27.9179 20.4504 27.8603 20.4576 27.6127 20.4648L27.3196 20.472V19.5946V18.7172H27.5185C27.6284 18.7172 27.7784 18.7298 27.8534 18.7442ZM27.9563 20.8837C28.3034 20.9974 28.5144 21.187 28.6121 21.4704C28.6644 21.6239 28.6766 21.9344 28.6383 22.1131C28.579 22.3894 28.4621 22.5573 28.2563 22.662C28.0766 22.7541 27.9353 22.7793 27.604 22.7793H27.3196V21.8026V20.8241L27.5778 20.8349C27.7749 20.8421 27.8621 20.853 27.9563 20.8837Z" fill="black"/>
<path d="M25.6277 19.5205V19.9629H25.1132H24.5986V20.203V20.4431L24.6963 20.5406C24.951 20.7988 25.0608 21.0425 25.2353 21.7322C25.3905 22.3442 25.3731 22.3226 25.694 22.3532L25.7847 22.3623V20.732V19.0999L25.7463 19.0891C25.7236 19.0836 25.6887 19.0782 25.6678 19.0782H25.6277V19.5205Z" fill="black"/>
<path d="M30.6966 19.9358L30.6861 19.9809H30.3042H29.9222L29.8943 20.0658C29.8716 20.1308 29.8664 20.2265 29.8664 20.5045V20.8584L29.9379 20.9559C30.1611 21.2646 30.2693 21.725 30.2152 22.1583C30.1803 22.4544 30.1001 22.6692 29.9431 22.9003L29.8664 23.0122V23.3625V23.7127L29.5664 23.7254C28.1222 23.7849 26.9274 24.0016 25.9716 24.3789C25.8861 24.4132 25.8094 24.4403 25.8007 24.4403C25.7919 24.4403 25.785 24.2706 25.785 24.0413V23.6423L25.6245 23.6513C25.5355 23.655 25.3925 23.673 25.3053 23.6911C25.1815 23.7163 25.089 23.7199 24.8745 23.7127L24.5989 23.7055V24.0738C24.5989 24.4204 24.5972 24.4439 24.5693 24.4313C23.6728 24.0377 22.3402 23.7849 20.8611 23.7254C20.5768 23.7145 20.5524 23.7109 20.5524 23.6802C20.5524 23.6477 20.5297 23.6459 20.1251 23.6459H19.6978V24.1117V24.5793L20.2873 24.592C21.7541 24.6227 22.7414 24.7545 23.7007 25.0487C24.0844 25.1661 24.6286 25.4062 24.8745 25.5669L24.946 25.6138L24.9512 25.7655L24.9565 25.9189L25.0751 25.8485C25.1414 25.8088 25.2024 25.7763 25.2129 25.7763C25.2216 25.7763 25.2774 25.8052 25.3332 25.8395C25.3908 25.8738 25.4414 25.9027 25.4466 25.9027C25.4501 25.9027 25.4536 25.8377 25.4536 25.7601V25.6174L25.6419 25.5091C26.6832 24.9043 28.335 24.5865 30.4385 24.5847H30.721V22.2377C30.721 20.9468 30.7175 19.8907 30.714 19.8907C30.7105 19.8907 30.7018 19.9105 30.6966 19.9358Z" fill="black"/>
<path d="M30.2763 29.6309C30.2676 29.6345 30.2292 29.6417 30.1926 29.6489C30.1089 29.6634 30.0094 29.7537 29.9658 29.8566C29.9397 29.9161 29.9309 29.9793 29.9292 30.0913C29.9292 30.2267 29.9344 30.261 29.978 30.3494C30.0495 30.5029 30.128 30.5517 30.3025 30.5517C30.4176 30.5517 30.4455 30.5444 30.5065 30.5029C30.6182 30.4271 30.6687 30.3025 30.6687 30.1111C30.6687 30.0245 30.66 29.9252 30.6495 29.8873C30.6269 29.7988 30.5257 29.6832 30.4542 29.6598C30.3827 29.6381 30.299 29.6255 30.2763 29.6309Z" fill="black"/>
<path d="M12.6982 29.9793C12.6528 30.1057 12.6162 30.214 12.6162 30.2213C12.6162 30.2303 12.6947 30.2357 12.7906 30.2357C12.8866 30.2357 12.965 30.2321 12.965 30.2267C12.965 30.2086 12.8028 29.7753 12.7924 29.7627C12.7854 29.7555 12.7435 29.853 12.6982 29.9793Z" fill="black"/>
<path d="M16.3838 29.8385V30.0371H16.5024C16.7588 30.0353 16.86 29.9793 16.86 29.8385C16.86 29.6977 16.7605 29.6435 16.4937 29.6417L16.3838 29.6399V29.8385Z" fill="black"/>
<path d="M17.6619 29.9884L17.5747 30.2267L17.7491 30.2321C17.8451 30.2339 17.9253 30.2339 17.9288 30.2303C17.9358 30.2249 17.7701 29.7681 17.7561 29.7555C17.7526 29.7518 17.7108 29.8566 17.6619 29.9884Z" fill="black"/>
<path d="M20.3307 29.992L20.2417 30.2357H20.4231C20.5225 30.2357 20.6045 30.2321 20.6045 30.2285C20.6045 30.2158 20.4283 29.7482 20.4231 29.7482C20.4196 29.7482 20.3795 29.8584 20.3307 29.992Z" fill="black"/>
<path d="M35.4998 29.6796C35.4981 29.9468 35.437 30.4217 35.3917 30.5101C35.3777 30.5408 35.3952 30.5426 35.6394 30.5426H35.901V30.0913V29.6399H35.7004C35.5033 29.6399 35.4998 29.6399 35.4998 29.6796Z" fill="black"/>
<path d="M27.8449 32.5304C27.6688 32.5665 27.5763 32.7037 27.5676 32.9456C27.5589 33.137 27.5833 33.2327 27.6618 33.323C27.8257 33.5107 28.1414 33.48 28.2478 33.267C28.3298 33.1009 28.3263 32.8391 28.2356 32.682C28.1676 32.5593 28.0071 32.4979 27.8449 32.5304Z" fill="black"/>
<path d="M10.9595 32.682V32.8355H11.1758C11.3676 32.8355 11.3955 32.8319 11.4374 32.7976C11.4705 32.7705 11.4827 32.7434 11.4827 32.6983C11.4827 32.5575 11.4234 32.5286 11.1496 32.5286H10.9595V32.682Z" fill="black"/>
<path d="M10.9595 33.2507V33.4349L11.2054 33.4277C11.4496 33.4223 11.4513 33.4223 11.4932 33.3717C11.5211 33.3374 11.5351 33.2995 11.5351 33.2544C11.5333 33.1153 11.4688 33.0828 11.1827 33.0738L10.9595 33.0666V33.2507Z" fill="black"/>
<path d="M12.3545 33.2598V33.4313H12.5655C12.719 33.4313 12.7923 33.4241 12.8341 33.4042C12.9179 33.3609 12.9545 33.258 12.9109 33.1749C12.8777 33.1099 12.7888 33.0883 12.5638 33.0883H12.3545V33.2598Z" fill="black"/>
<path d="M24.8428 33.2598V33.4313H25.0573C25.2875 33.4313 25.3311 33.4187 25.3887 33.3374C25.4184 33.2959 25.4218 33.276 25.4079 33.2201C25.3835 33.1135 25.3172 33.0883 25.0573 33.0883H24.8428V33.2598Z" fill="black"/>
</g>
<defs>
<clipPath id="clip0_123_20">
<rect width="42" height="36" fill="white" transform="translate(4 7)"/>
</clipPath>
</defs>
</svg>
