<svg width="260" height="182" viewBox="0 0 260 182" fill="none" xmlns="http://www.w3.org/2000/svg">
<path opacity="0.937" fill-rule="evenodd" clip-rule="evenodd" d="M35.5009 0.0527344C24.7829 -0.0377242 14.0659 0.0527344 3.35056 0.324219C2.26508 0.636046 1.44769 1.26953 0.898407 2.22461C0.534943 8.01646 0.534943 13.8078 0.898407 19.5996C1.35233 20.0519 1.80679 20.5047 2.26071 20.957C8.98886 21.0477 15.7094 21.3192 22.4228 21.7715C28.5287 35.4766 34.7043 49.1415 40.9502 62.7656C28.0966 65.077 19.6503 72.4071 15.6113 84.7559C14.7198 101.562 14.5383 118.394 15.0664 135.252C20.2464 152.518 31.9622 160.754 50.2138 159.957C57.1066 175.973 69.2769 182.851 86.7236 180.59C98.2967 177.834 105.926 170.866 109.61 159.686C142.308 159.505 175.003 159.686 207.696 160.229C211.157 173.539 219.785 180.598 233.58 181.404C249.237 179.649 257.865 170.962 259.464 155.342C257.912 139.497 249.193 130.99 233.308 129.822C230.35 129.927 227.443 130.199 224.589 130.637C214.548 120.087 204.013 110.133 192.983 100.773C191.894 100.411 190.804 100.05 189.714 99.6875C180.815 99.416 171.915 99.3253 163.013 99.416C163.013 97.7871 163.013 96.1582 163.013 94.5293C166.287 94.6194 169.557 94.5288 172.821 94.2578C173.795 93.8316 174.612 93.1985 175.273 92.3574C175.637 84.5751 175.637 76.7921 175.273 69.0098C175.07 68.5124 174.797 68.0596 174.456 67.6523C160.698 67.0236 146.893 66.7521 133.042 66.8379C119.191 66.7521 105.386 67.0236 91.6279 67.6523C91.2868 68.0596 91.0143 68.5124 90.8105 69.0098C90.4471 76.7921 90.4471 84.5751 90.8105 92.3574C91.4721 93.1985 92.2894 93.8316 93.2627 94.2578C96.5273 94.5288 99.7968 94.6194 103.071 94.5293C103.071 96.1582 103.071 97.7871 103.071 99.416C95.4903 99.5914 87.9519 99.4106 80.457 98.873C66.6525 67.3809 52.8475 35.8887 39.0429 4.39648C38.3318 2.51705 37.1515 1.06917 35.5009 0.0527344ZM31.6865 8.19727C23.8761 8.19727 16.0652 8.19727 8.25485 8.19727C8.25485 9.82617 8.25485 11.4551 8.25485 13.084C14.2517 12.9933 20.2459 13.084 26.2373 13.3555C27.2105 13.7817 28.0279 14.4148 28.6894 15.2559C41.4455 44.1141 54.3422 72.8914 67.3789 101.588C68.8257 100.745 70.3694 100.111 72.0107 99.6875C58.3424 69.2829 44.9014 38.786 31.6865 8.19727ZM44.7646 71.1816C31.3917 72.2893 24.0352 79.5287 22.6953 92.9004C22.3318 105.027 22.3318 117.153 22.6953 129.279C24.639 144.33 33.2668 151.751 48.5791 151.541C48.3911 141.604 51.9331 133.278 59.2051 126.564C59.3865 121.678 59.5685 116.791 59.75 111.904C60.1287 110.698 60.5826 109.521 61.1123 108.375C55.4315 96.061 49.9823 83.6634 44.7646 71.1816ZM167.372 74.9824C144.485 74.9824 121.599 74.9824 98.7119 74.9824C98.7119 78.7832 98.7119 82.584 98.7119 86.3848C121.599 86.3848 144.485 86.3848 167.372 86.3848C167.372 82.584 167.372 78.7832 167.372 74.9824ZM155.384 94.5293C140.489 94.5293 125.595 94.5293 110.7 94.5293C110.7 96.1582 110.7 97.7871 110.7 99.416C125.595 99.416 140.489 99.416 155.384 99.416C155.384 97.7871 155.384 96.1582 155.384 94.5293ZM185.354 107.018C149.026 106.927 112.698 107.018 76.3701 107.289C68.854 108.952 66.1294 113.567 68.1963 121.135C83.0438 116.167 95.4865 119.606 105.523 131.451C109.718 137.49 111.625 144.186 111.245 151.541C143.398 151.722 175.548 151.541 207.696 150.998C208.893 144.804 211.89 139.736 216.687 135.795C217.051 135.433 217.051 135.071 216.687 134.709C208.241 126.293 199.795 117.877 191.349 109.461C189.453 108.262 187.455 107.447 185.354 107.018ZM84.5439 127.107C68.3848 126.378 59.1211 133.979 56.7529 149.912C58.4977 165.136 67.035 172.828 82.3642 172.988C97.0112 169.956 103.823 160.997 102.799 146.111C100.492 136.121 94.4065 129.786 84.5439 127.107ZM237.122 137.967C222.242 137.68 215.249 144.92 216.143 159.686C220.328 170.866 228.23 174.938 239.847 171.902C250.624 165.93 253.439 157.333 248.293 146.111C245.454 142.125 241.731 139.41 237.122 137.967ZM82.9092 140.139C75.4688 139.498 71.1094 142.846 69.831 150.184C71.9143 159.094 77.182 161.809 85.6338 158.328C90.3975 154.219 91.2149 149.422 88.0859 143.939C86.5656 142.33 84.8398 141.063 82.9092 140.139ZM234.942 150.998C230.227 150.719 228.32 152.891 229.221 157.514C231.945 161.134 234.67 161.134 237.395 157.514C238.226 154.657 237.409 152.485 234.942 150.998Z" fill="#E8ECE8"/>
</svg>
