<svg width="74" height="71" viewBox="0 0 74 71" fill="none" xmlns="http://www.w3.org/2000/svg">
<g clip-path="url(#clip0_241_214)">
<path opacity="0.99" fill-rule="evenodd" clip-rule="evenodd" d="M73.9277 20.5928C73.9277 33.4431 73.9277 46.2933 73.9277 59.1436C73.0967 62.8306 70.7842 65.211 66.9902 66.2852C56.9745 66.4459 46.9537 66.5152 36.9277 66.4932C26.9017 66.5152 16.881 66.4459 6.86523 66.2852C3.0713 65.211 0.758799 62.8306 -0.0722656 59.1436C-0.0722656 46.2933 -0.0722656 33.4431 -0.0722656 20.5928C0.865249 16.6194 3.41864 14.1927 7.58789 13.3125C10.4316 13.2893 13.274 13.22 16.1152 13.1045C17.2956 10.8395 18.4759 8.57454 19.6562 6.30957C20.1688 5.58662 20.8191 5.00883 21.6074 4.57617C26.7058 4.41571 31.8125 4.34638 36.9277 4.36816C42.043 4.34638 47.1497 4.41571 52.248 4.57617C53.1308 4.91471 53.7812 5.4925 54.1992 6.30957C55.3796 8.57454 56.5598 10.8395 57.7402 13.1045C60.5814 13.22 63.4239 13.2893 66.2676 13.3125C70.4369 14.1927 72.9902 16.6194 73.9277 20.5928ZM25.3652 8.80567C33.4149 8.74039 41.4605 8.80973 49.502 9.01367C50.3295 9.34545 50.9799 9.87702 51.4531 10.6084C52.8402 12.8537 54.117 15.1649 55.2832 17.542C58.4136 17.6575 61.5452 17.7268 64.6777 17.75C67.448 18.0042 68.9655 19.4602 69.2305 22.1182C69.3269 33.9515 69.3269 45.7849 69.2305 57.6182C68.9655 60.2761 67.448 61.7321 64.6777 61.9863C46.1777 62.0788 27.6777 62.0788 9.17773 61.9863C6.40755 61.7321 4.88997 60.2761 4.625 57.6182C4.52864 45.7849 4.52864 33.9515 4.625 22.1182C4.8289 19.9437 6.00923 18.5338 8.16602 17.8887C11.6313 17.7368 15.1 17.6213 18.5723 17.542C19.7982 15.0037 21.1712 12.5539 22.6914 10.1924C23.405 9.37683 24.2963 8.91458 25.3652 8.80567Z" fill="#2C302D"/>
<path opacity="0.965" fill-rule="evenodd" clip-rule="evenodd" d="M34.6152 22.1181C42.4762 21.6022 48.5707 24.4682 52.8984 30.7158C55.8316 35.9064 56.2171 41.2684 54.0546 46.8017C50.1156 54.5519 43.6358 58.1344 34.6152 57.5488C27.3665 56.4173 22.3319 52.6039 19.5117 46.1083C16.9772 38.2907 18.8321 31.6113 25.0761 26.0702C27.904 23.9504 31.0837 22.633 34.6152 22.1181ZM35.0488 26.6943C33.9401 26.9261 32.8321 27.2265 31.7245 27.5956C27.0085 29.6711 24.1901 33.161 23.2695 38.0654C22.796 45.2265 26.0479 50.0569 33.0253 52.5566C37.7081 53.744 41.9477 52.912 45.7441 50.0605C50.4766 45.8345 51.8015 40.7729 49.7187 34.8759C46.7744 28.9898 41.8845 26.2626 35.0488 26.6943Z" fill="#2C302D"/>
</g>
<defs>
<clipPath id="clip0_241_214">
<rect width="74" height="71" fill="white"/>
</clipPath>
</defs>
</svg>
