<svg width="15" height="16" viewBox="0 0 15 16" fill="none" xmlns="http://www.w3.org/2000/svg">
<path d="M4.88639 0.0243797C4.60115 0.0903463 4.31282 0.315232 4.1857 0.573102C4.08339 0.774 4.05859 0.998886 4.05859 1.72152V2.39018H2.26657H0.471457L0.33504 2.45915C-0.133116 2.69903 -0.105213 3.3467 0.384646 3.56259C0.490059 3.61057 0.592371 3.61956 1.02332 3.61956H1.54109L1.55969 3.77548C1.56899 3.86244 1.78601 6.24923 2.04024 9.0768C2.29448 11.9044 2.5177 14.3122 2.5363 14.4231C2.60761 14.8609 2.90525 15.1937 3.3176 15.3017C3.56563 15.3646 11.4344 15.3646 11.6824 15.3017C12.0886 15.1967 12.3862 14.8669 12.4606 14.4411C12.4792 14.3361 12.7024 11.9284 12.9567 9.09179C13.214 6.25523 13.431 3.86244 13.4403 3.77548L13.4589 3.61956H13.9767C14.4076 3.61956 14.5099 3.61057 14.6154 3.56259C15.1052 3.3467 15.1331 2.69903 14.665 2.45915L14.5285 2.39018H12.7334H10.9414V1.72152C10.9414 0.998886 10.9166 0.774 10.8143 0.573102C10.7213 0.384197 10.5043 0.180301 10.2965 0.087347L10.1198 0.00638866L7.56201 0.000391006C6.12964 -0.00260735 4.95149 0.00938702 4.88639 0.0243797ZM9.63926 1.82047V2.39018H7.5H5.36074V1.82047V1.25076H7.5H9.63926V1.82047ZM12.1506 3.67953C12.1506 3.70951 11.9428 6.04233 11.6855 8.85791C11.4313 11.6735 11.2204 14.0033 11.2204 14.0303C11.2204 14.0813 11.0375 14.0843 7.5 14.0843C3.94387 14.0843 3.77955 14.0813 3.77955 14.0303C3.77955 14.0003 3.57183 11.6705 3.3145 8.85191C3.06027 6.03334 2.84944 3.70352 2.84944 3.67353C2.84944 3.62256 3.04787 3.61956 7.5 3.61956C12.1041 3.61956 12.1506 3.61956 12.1506 3.67953Z" fill="#2C302D"/>
</svg>
