<svg width="36" height="36" viewBox="0 0 36 36" fill="none" xmlns="http://www.w3.org/2000/svg">
<g clip-path="url(#clip0_241_235)">
<path d="M22.2541 0.105443C21.2627 0.323411 20.447 0.780442 19.6806 1.55388C19.1884 2.04607 19.0127 2.28513 18.7455 2.81247C18.5627 3.17107 18.3869 3.607 18.3447 3.76872L18.2673 4.0781H9.60485H0.942348L0.632973 4.23279C0.204067 4.45075 -0.0139018 4.83747 0.0212545 5.2945C0.0564107 5.67419 0.211098 5.93435 0.562661 6.16638L0.794692 6.3281H9.52047H18.2463L18.4009 6.84138C18.8439 8.28982 20.0955 9.58357 21.572 10.125C22.9994 10.6453 24.4478 10.5468 25.8259 9.82966C27.0353 9.19685 28.1181 7.83279 28.4416 6.51794L28.4908 6.3281H31.8517H35.2056L35.4377 6.16638C35.7892 5.93435 35.9439 5.67419 35.9791 5.2945C36.0142 4.83747 35.7962 4.45075 35.3673 4.23279C35.058 4.0781 35.0369 4.0781 31.7673 4.0781H28.4838L28.4064 3.77575C28.2658 3.24841 27.7947 2.3695 27.3869 1.87732C26.3955 0.682005 24.8767 -0.0140886 23.2947 0.00700474C22.9572 0.0140362 22.4861 0.0562239 22.2541 0.105443ZM24.265 2.38357C25.3478 2.72107 26.1142 3.61404 26.3111 4.77419C26.6416 6.69372 24.8908 8.47263 22.9713 8.17029C21.1994 7.89607 20.0392 6.15232 20.4963 4.46482C20.6439 3.92341 21.0377 3.28357 21.4173 2.96716C21.7267 2.70701 22.3244 2.39763 22.6619 2.32029C23.0908 2.21482 23.815 2.24997 24.265 2.38357Z" fill="#2C302D"/>
<path d="M11.3557 12.9375C9.55571 13.4086 8.17759 14.7093 7.62212 16.4671L7.50259 16.8679L4.10649 16.889C0.801807 16.9101 0.7104 16.9171 0.520557 17.0578C0.1479 17.332 0.0354004 17.557 0.0354004 18C0.0354004 18.4429 0.1479 18.6679 0.520557 18.9421C0.7104 19.0828 0.801807 19.0898 4.11353 19.1109L7.51665 19.132L7.62915 19.5257C7.96665 20.6789 8.88071 21.8461 9.94243 22.4929C10.1604 22.6195 10.6104 22.8234 10.9479 22.9429C11.4752 23.1257 11.7002 23.1609 12.4315 23.189C13.5002 23.2312 14.0346 23.1187 14.9768 22.6546C16.1581 22.0781 17.2057 20.8687 17.5924 19.6382L17.7542 19.125L26.5221 19.1109C35.2479 19.0898 35.2901 19.0898 35.4799 18.9421C35.8526 18.6679 35.9651 18.4429 35.9651 18C35.9651 17.557 35.8526 17.332 35.4799 17.0578C35.2901 16.9101 35.2479 16.9101 26.5221 16.889L17.7542 16.875L17.5924 16.3546C17.2057 15.1242 16.144 13.9007 14.9487 13.3242C14.5971 13.1554 14.1049 12.9656 13.8518 12.9093C13.212 12.7546 11.9815 12.7687 11.3557 12.9375ZM13.5917 15.1804C15.3213 15.7781 16.1018 17.7539 15.2651 19.3921C14.9417 20.032 14.337 20.5382 13.5917 20.8125C13.226 20.9461 13.0502 20.9671 12.5018 20.939C11.9534 20.9179 11.7706 20.8757 11.3698 20.6929C9.87212 19.9898 9.22524 18.1757 9.94243 16.6992C10.287 16.0101 10.8002 15.539 11.5807 15.2156C12.1151 14.9976 13.0081 14.9836 13.5917 15.1804Z" fill="#2C302D"/>
<path d="M22.465 25.6218C20.5525 25.9945 18.9423 27.3937 18.4009 29.1585L18.2463 29.6718H9.52047H0.794692L0.562661 29.8265C0.211098 30.0656 0.0564107 30.3257 0.0212545 30.7054C-0.0139018 31.1624 0.204067 31.5492 0.632973 31.7671L0.942348 31.9218H9.60485H18.2673L18.3447 32.2312C18.3869 32.3929 18.5697 32.8289 18.7525 33.1945C19.2939 34.2843 20.2853 35.1703 21.5088 35.6695C23.4634 36.464 26.0017 35.8031 27.3798 34.1296C27.8298 33.5882 28.2025 32.8992 28.3713 32.3296L28.4838 31.9218H31.7744C35.0369 31.9218 35.058 31.9218 35.3673 31.7671C35.7962 31.5492 36.0142 31.1624 35.9791 30.7054C35.9439 30.3257 35.7892 30.0656 35.4377 29.8335L35.2056 29.6718H31.8517H28.5048L28.3783 29.264C28.1181 28.4273 27.7103 27.7804 27.0353 27.1054C26.3252 26.3882 25.6572 25.9874 24.7502 25.7414C24.0681 25.5515 23.0978 25.5023 22.465 25.6218ZM24.047 27.8859C25.5447 28.2234 26.5642 29.7351 26.3111 31.2257C26.1634 32.0835 25.7134 32.7937 25.0244 33.2507C23.6533 34.1648 21.7689 33.7781 20.883 32.3999C19.9267 30.9234 20.4752 28.8914 22.0361 28.1249C22.7463 27.7734 23.2806 27.7101 24.047 27.8859Z" fill="#2C302D"/>
</g>
<defs>
<clipPath id="clip0_241_235">
<rect width="36" height="36" fill="white"/>
</clipPath>
</defs>
</svg>
