<svg id="Слой_1" data-name="Слой 1" xmlns="http://www.w3.org/2000/svg" viewBox="0 0 333.01 73.95"><defs><style>.cls-1,.cls-2{fill:#627a50;}.cls-1{stroke:#627a50;stroke-miterlimit:10;stroke-width:0.43px;}.cls-1,.cls-2,.cls-3,.cls-4{fill-rule:evenodd;}.cls-3{fill:#2c302d;}.cls-4{fill:#060606;}</style></defs><g id="Слой_1-2" data-name="Слой_1"><g id="Слой_1_0" data-name="Слой_1 0"><g id="_1911389971936" data-name=" 1911389971936"><path class="cls-1" d="M193,344.78l-35.25-.22V273.23h69.82v71.7l-32.47-.07.15-31.58c2.7-10.95,11.77-12.22,21.67-14.55-.22,12.15-.22,13.13-4.57,18.6-4.88,3.68-8.33,3.68-13.05,5.1l-.08,18.08,23.85-.08L223,278.11H161.85l.08,62.62,26.85.15v-6.07c-16.65-4.43-18.3-9.23-17.33-23.85l8.93,2.55c5.1,1.57,10.27,2.7,12.37,11.32l.23,19.95Zm-17.25-28.27c.67,10.12,3.52,11.92,13.35,13.72C188.18,320.48,185.48,318,175.73,316.51Zm36.67-12.08c-.15,2,.45,6.45-3.07,9.68-2.78,2.32-6,3.07-9.75,3.82-1-7.65,2.85-11.85,12.82-13.5Z" transform="translate(-157.51 -273.02)"/><path class="cls-2" d="M193.05,313.81c.9-17.78-3.9-20.63-21.3-24.53C170.7,302.48,171.15,309.08,193.05,313.81Zm-17.7-19.13c.15,2-.45,6.45,3.23,9.68,2.92,2.32,6.3,3.07,10.2,3.82C189.83,300.46,185.85,296.26,175.35,294.68Z" transform="translate(-157.51 -273.02)"/></g></g><path class="cls-3" d="M259.11,326.24a14.39,14.39,0,0,0,4,.49,48.48,48.48,0,0,0,5.48-.49V311.62c-3,0-6,0-9-.12a5.6,5.6,0,0,1-.48-2.56,4.4,4.4,0,0,1,.48-2.32q7.56-.18,15.11-.12.14,11.82-.24,23.64a38.9,38.9,0,0,1-15.6,1.83,15.94,15.94,0,0,1-13.52-10.12,39.8,39.8,0,0,1-1-23.39q3.4-10.72,14.5-12.56A37.36,37.36,0,0,1,274,287.73a6.73,6.73,0,0,1-1.7,4.51c-2.24-.4-4.52-.73-6.83-1q-13.89-1.59-15.47,12.31a71.46,71.46,0,0,0,.48,13.4,16.09,16.09,0,0,0,3.42,6.58,10.74,10.74,0,0,0,5.24,2.68Z" transform="translate(-157.51 -273.02)"/><path class="cls-3" d="M378.78,307q-.37,11.88-.25,23.88a7.41,7.41,0,0,1-5.85.25q-.24-16.29.49-32.42a12.37,12.37,0,0,1,5.61.24v2.44a26.13,26.13,0,0,1,4.14-2.56,18.37,18.37,0,0,1,7.8-.73,8.89,8.89,0,0,1,7.19,7.68q.3,12.68-.12,25.35a9.43,9.43,0,0,1-5.85,0q-.31-12.19-.37-24.38a4.78,4.78,0,0,0-2.8-3.29,9,9,0,0,0-8.29,1.47,6.64,6.64,0,0,0-1.7,2.07Z" transform="translate(-157.51 -273.02)"/><path class="cls-3" d="M289.69,308q-.18,11.58-.12,23.16a9.29,9.29,0,0,1-5.85,0q-.36-16.22-.24-32.42a13.33,13.33,0,0,1,6.09.24,11.4,11.4,0,0,0,.49,3.66q4.71-7.07,12.43-3.29a5.45,5.45,0,0,1-2.19,5.12,15.7,15.7,0,0,0-4.15-.86,7.75,7.75,0,0,0-6.46,4.39Z" transform="translate(-157.51 -273.02)"/><path class="cls-4" d="M364.64,316.74q-9.6.36-19.25.24c-.73,6.88,4.78,10.91,11.21,9.63a20.42,20.42,0,0,0,4.75-1.59,5.06,5.06,0,0,1,1.83,4.63,22,22,0,0,1-15.36,1.83c-10.1-3.61-10.3-17.42-7.43-26,5.56-11,22.17-10.34,24.62,2a44.9,44.9,0,0,1-.37,9.27Zm-5.73-8.05a15,15,0,0,1-.12,3.9h-13.4C345,301.44,357.61,299.1,358.91,308.69Z" transform="translate(-157.51 -273.02)"/><g id="_3115063167408" data-name=" 3115063167408"><path class="cls-3" d="M445.31,298.94a33.79,33.79,0,0,0,.13,4.15,1.14,1.14,0,0,0,.36-.49q4.59-7.12,12.19-3.29a5.27,5.27,0,0,1-1.95,5.12q-7-3-10.6,3.78-.06,11.44-.37,22.91a12.06,12.06,0,0,1-5.85.24V298.7a13.33,13.33,0,0,1,6.09.24Z" transform="translate(-157.51 -273.02)"/></g><path class="cls-3" d="M476.27,325c.14.31.3.31.49,0,1.95-3.79,6-20.2,8.16-26.08a8.83,8.83,0,0,1,5.61,0q-.76,3.17-1.71,6.34-5.71,16.79-11,33.64a15.85,15.85,0,0,1-4.51,6.7,11.15,11.15,0,0,1-3.65,1.34,31.79,31.79,0,0,1-4.88-.25,1.32,1.32,0,0,1-.73-.24,5.58,5.58,0,0,1,0-4.39c1.44,0,2.9-.05,4.39-.12a5.12,5.12,0,0,0,2.56-1.83,38.18,38.18,0,0,0,3.29-8.77,6.14,6.14,0,0,1-1.71-.12q-6.44-16.11-11.94-32.54a14.93,14.93,0,0,1,6.21.24q5.33,12.82,9.39,26.08Z" transform="translate(-157.51 -273.02)"/><path class="cls-3" d="M364.64,316.74q-9.6.36-19.25.24c-.73,6.88,4.78,10.91,11.21,9.63a20.42,20.42,0,0,0,4.75-1.59,5.06,5.06,0,0,1,1.83,4.63,22,22,0,0,1-15.36,1.83c-10.1-3.61-10.3-17.42-7.43-26,5.56-11,22.17-10.34,24.62,2a44.9,44.9,0,0,1-.37,9.27Zm-5.73-8.05a15,15,0,0,1-.12,3.9h-13.4C345,301.44,357.61,299.1,358.91,308.69Z" transform="translate(-157.51 -273.02)"/><path class="cls-3" d="M332.4,316.82q-9.6.36-19.26.24c-.73,6.88,4.78,10.91,11.21,9.63a20.47,20.47,0,0,0,4.76-1.58,5,5,0,0,1,1.82,4.63,22,22,0,0,1-15.35,1.82c-10.1-3.6-10.3-17.42-7.44-25.95,5.57-11,22.17-10.34,24.62,1.95a44.8,44.8,0,0,1-.36,9.26Zm-5.73-8a15,15,0,0,1-.12,3.9H313.14C312.78,301.52,325.36,299.18,326.67,308.78Z" transform="translate(-157.51 -273.02)"/><path class="cls-3" d="M431,316.54q-9.6.36-19.25.24c-.73,6.88,4.78,10.91,11.21,9.63a20.4,20.4,0,0,0,4.75-1.58,5.05,5.05,0,0,1,1.83,4.63,22.08,22.08,0,0,1-15.36,1.83c-10.1-3.61-10.3-17.43-7.43-26,5.56-11,22.17-10.34,24.62,1.95a44.8,44.8,0,0,1-.37,9.26Zm-5.73-8a15,15,0,0,1-.12,3.9h-13.4C411.38,301.24,424,298.9,425.26,308.5Z" transform="translate(-157.51 -273.02)"/></g></svg>