<svg width="124" height="124" viewBox="0 0 124 124" fill="none" xmlns="http://www.w3.org/2000/svg">
<g clip-path="url(#clip0_38_162)">
<path opacity="0.954" fill-rule="evenodd" clip-rule="evenodd" d="M101.113 -0.121094C106.361 -0.121094 111.608 -0.121094 116.855 -0.121094C118.041 0.0408403 119.252 0.242662 120.488 0.484375C121.615 1.4019 121.978 2.57247 121.578 3.99609C119.739 14.3583 116.267 24.1265 111.164 33.3008C101.664 48.8054 87.9799 54.6583 70.113 50.8594C68.1661 50.2362 66.2286 49.6712 64.3005 49.1641C57.0056 60.3926 53.3324 72.704 53.281 86.0977C60.1473 80.6436 67.6953 79.4731 75.9255 82.5859C81.9478 85.2982 86.0245 89.7787 88.156 96.0273C91.5106 93.8385 95.1838 93.0717 99.1755 93.7266C106.95 95.7045 111.148 100.71 111.769 108.742C111.122 116.794 106.924 121.84 99.1755 123.879C72.9386 123.879 46.7015 123.879 20.4646 123.879C11.5322 121.284 7.45535 115.31 8.23413 105.957C9.73412 99.2903 13.8109 95.2136 20.4646 93.7266C22.2406 93.6459 24.0167 93.565 25.7927 93.4844C30.3095 87.2415 36.3642 84.9003 43.9568 86.4609C45.291 86.7978 46.5424 87.3224 47.7107 88.0352C47.7889 83.8303 47.9907 79.6325 48.3162 75.4414C48.3518 67.9934 45.8088 61.6159 40.6873 56.3086C29.5682 63.3524 19.8 61.8186 11.3826 51.707C7.10738 45.7393 3.99931 39.2002 2.05835 32.0898C2.04194 30.451 2.84924 29.5227 4.48023 29.3047C10.8234 27.9969 17.201 27.7547 23.613 28.5781C36.2809 31.0753 42.8604 38.7849 43.3513 51.707C47.0449 54.8916 49.7899 58.7666 51.5857 63.332C53.8107 56.7431 56.838 50.5673 60.6677 44.8047C59.9775 42.6424 59.5333 40.4223 59.3357 38.1445C57.9165 22.4497 64.3344 11.3494 78.5896 4.84375C85.8734 2.04354 93.3812 0.388595 101.113 -0.121094ZM105.957 4.96484C109.268 4.98751 112.578 5.06826 115.886 5.20703C114.281 13.5354 111.496 21.4468 107.531 28.9414C98.4051 44.9846 85.0444 50.1108 67.449 44.3203C72.1411 38.0934 77.429 32.402 83.3123 27.2461C84.3721 25.4541 84.0088 24.0413 82.2224 23.0078C81.3835 22.81 80.576 22.8908 79.8005 23.25C74.2438 27.9182 69.2789 33.1252 64.906 38.8711C63.0443 23.9852 69.1395 13.9344 83.1912 8.71875C90.6285 6.348 98.2172 5.09671 105.957 4.96484ZM14.1677 33.3008C19.8941 32.8823 25.303 33.9721 30.3943 36.5703C34.2644 39.2213 36.6863 42.8541 37.6599 47.4688C35.3068 46.4133 32.8849 45.4445 30.3943 44.5625C28.0845 43.8987 25.7436 43.3741 23.3709 42.9883C21.2461 43.2976 20.3985 44.5085 20.8279 46.6211C21.0153 47.2118 21.3786 47.656 21.9177 47.9531C26.9484 48.6744 31.6309 50.3295 35.9646 52.918C29.3878 56.7104 23.3331 56.0243 17.8005 50.8594C15.8658 48.8444 14.2108 46.6245 12.8357 44.1992C11.098 40.9258 9.52383 37.5754 8.11304 34.1484C10.1583 33.8026 12.1765 33.52 14.1677 33.3008ZM66.4802 86.0977C76.6599 86.6472 82.4319 91.9753 83.7966 102.082C84.4903 103.581 85.6608 104.106 87.3084 103.656C88.4306 102.777 89.48 101.808 90.4568 100.75C95.8053 97.6093 100.528 98.3763 104.625 103.051C107.508 108.378 106.661 113.02 102.082 116.977C100.443 117.98 98.6669 118.545 96.7537 118.672C72.1312 118.833 47.509 118.833 22.8865 118.672C18.1115 118.176 15.0034 115.633 13.5623 111.043C12.7214 105.02 15.1836 101.024 20.949 99.0547C23.026 98.6529 25.0846 98.774 27.1248 99.418C28.7612 98.9825 29.8106 97.9331 30.2732 96.2695C34.7164 90.8499 40.004 89.8409 46.1365 93.2422C47.1859 93.9688 48.074 94.8568 48.8005 95.9062C51.3147 97.0053 52.9696 96.2385 53.7654 93.6055C56.8482 89.1378 61.0865 86.6353 66.4802 86.0977Z" fill="#2C302D"/>
</g>
<defs>
<clipPath id="clip0_38_162">
<rect width="124" height="124" fill="white"/>
</clipPath>
</defs>
</svg>
