<svg width="121" height="121" viewBox="0 0 121 121" fill="none" xmlns="http://www.w3.org/2000/svg">
<g clip-path="url(#clip0_38_144)">
<path opacity="0.927" fill-rule="evenodd" clip-rule="evenodd" d="M83.7782 3.66309C91.2123 3.81013 94.7965 7.59138 94.5311 15.0068C92.1309 22.6371 86.8923 26.4184 78.8153 26.3506C77.1383 26.309 75.484 26.1121 73.8524 25.7598C73.0401 25.4986 72.4493 24.9865 72.0799 24.2236C71.2885 19.9595 71.6824 15.7844 73.2616 11.6982C75.5795 7.44923 79.0849 4.77085 83.7782 3.66309ZM84.2508 7.44434C88.8505 7.59266 91.0169 9.95594 90.7498 14.5342C89.1119 19.4793 85.6851 22.1183 80.4696 22.4512C78.812 22.5691 77.1577 22.5297 75.5067 22.333C75.1007 18.6515 75.7704 15.1853 77.5155 11.9346C79.2938 9.72034 81.539 8.2236 84.2508 7.44434Z" fill="#2C302D"/>
<path opacity="0.926" fill-rule="evenodd" clip-rule="evenodd" d="M47.3836 7.68068C50.047 7.10184 51.8984 8.04715 52.9373 10.5166C55.2373 15.5248 55.8676 20.724 54.8279 26.1143C53.5884 29.9532 51.3433 33.0647 48.0926 35.4492C42.3571 38.5116 37.2761 37.6844 32.8494 32.9678C30.5171 29.3919 29.9658 25.532 31.1951 21.3877C32.6972 15.9469 36.0453 12.1263 41.2391 9.9258C43.2859 9.09983 45.3342 8.35147 47.3836 7.68068ZM48.0926 11.4619C48.4866 11.4619 48.8803 11.4619 49.2742 11.4619C50.332 14.0459 51.0805 16.7242 51.5194 19.4971C52.0435 24.5422 50.3498 28.678 46.4383 31.9043C42.4363 34.3501 38.8522 33.8379 35.6854 30.3682C33.5329 24.9905 34.5174 20.2245 38.6395 16.0703C41.5248 13.958 44.6758 12.4218 48.0926 11.4619Z" fill="#2C302D"/>
<path opacity="0.927" fill-rule="evenodd" clip-rule="evenodd" d="M-0.118164 56.6006C-0.118164 55.4189 -0.118164 54.2373 -0.118164 53.0557C0.488318 49.2302 1.8669 45.6853 4.01758 42.4209C8.0612 37.7411 13.1423 35.89 19.2607 36.8672C23.8895 38.6623 26.3314 42.0496 26.5869 47.0293C26.5096 49.6246 25.6825 51.9485 24.1055 54.001C19.5587 59.4254 13.7687 61.4342 6.73535 60.0273C5.12222 59.7816 3.54669 59.3878 2.00879 58.8457C1.07901 58.2714 0.370026 57.523 -0.118164 56.6006ZM14.2979 40.2939C19.3403 39.7849 22.1763 42.03 22.8057 47.0293C22.7161 48.637 22.2041 50.0945 21.2695 51.4014C18.1904 55.4017 14.1335 57.0954 9.09863 56.4824C7.32672 56.3054 5.59365 55.9509 3.89941 55.4189C3.78914 51.5342 4.85262 47.9893 7.08984 44.7842C9.07727 42.5908 11.4799 41.0939 14.2979 40.2939Z" fill="#2C302D"/>
<path opacity="0.923" fill-rule="evenodd" clip-rule="evenodd" d="M71.7254 38.876C77.4492 38.2507 82.4911 39.7868 86.8504 43.4844C88.9475 45.4237 90.8776 47.5114 92.6404 49.7471C93.4784 51.3659 93.3997 52.9415 92.4041 54.4736C91.3406 55.8521 90.1195 57.0732 88.741 58.1367C86.5951 58.8965 85.6103 58.1481 85.7869 55.8916C87.1252 54.6707 88.3463 53.3317 89.45 51.874C86.7251 48.084 83.2589 45.2086 79.0515 43.248C74.9541 42.159 71.0152 42.553 67.2351 44.4297C63.4789 47.3741 62.5731 51.0372 64.5174 55.4189C65.7335 57.3445 67.4273 58.6444 69.5984 59.3184C72.3029 60.2493 75.06 60.4856 77.8699 60.0273C78.9364 59.6719 79.9999 59.3174 81.0603 58.9639C82.6714 59.1128 83.3014 59.9794 82.951 61.5635C82.6553 62.2443 82.1434 62.6775 81.4148 62.8633C75.3216 64.9172 69.571 64.2082 64.1629 60.7363C59.9347 56.9404 58.7136 52.332 60.4998 46.9111C61.8932 43.5484 64.2959 41.2244 67.7078 39.9395C69.0674 39.541 70.4064 39.1865 71.7254 38.876Z" fill="#2C302D"/>
<path opacity="0.926" fill-rule="evenodd" clip-rule="evenodd" d="M37.6944 51.1651C44.6349 50.9776 49.0856 54.2075 51.0469 60.8545C52.7185 66.8816 51.6944 72.3958 47.9746 77.3975C45.9562 80.1249 43.5536 82.449 40.7666 84.3692C39.1381 84.9633 37.6412 84.727 36.2764 83.6602C31.5205 79.9375 28.3301 75.1717 26.7051 69.3623C26.119 64.8423 26.9067 60.5884 29.0684 56.6006C31.1445 53.496 34.0197 51.6843 37.6944 51.1651ZM37.9307 54.9463C43.1046 54.796 46.2951 57.238 47.502 62.2725C48.6101 66.4952 47.9798 70.4338 45.6114 74.0889C43.8141 76.7138 41.6477 78.9981 39.1123 80.9424C35.1895 78.084 32.3928 74.3815 30.7227 69.835C29.9116 66.0379 30.3843 62.4143 32.1407 58.9639C32.8806 57.9871 33.7077 57.0813 34.6221 56.2461C35.6896 55.6423 36.7925 55.2091 37.9307 54.9463Z" fill="#2C302D"/>
<path opacity="0.926" fill-rule="evenodd" clip-rule="evenodd" d="M102.685 61.5635C107.561 61.2256 111.618 62.8799 114.855 66.5264C119.039 71.364 120.536 76.9572 119.346 83.3057C119.003 85.9358 118.295 88.4565 117.219 90.8682C116.287 91.9409 115.105 92.4135 113.674 92.2862C107.147 91.896 101.554 89.454 96.8945 84.96C94.2836 81.5876 92.8261 77.7671 92.5225 73.4981C92.9961 67.0007 96.3834 63.0224 102.685 61.5635ZM102.921 65.3448C106.592 65.073 109.625 66.3335 112.02 69.126C115.475 73.1594 116.657 77.8073 115.564 83.0694C115.202 84.9026 114.769 86.7142 114.265 88.5049C108.629 88.2693 103.784 86.221 99.7305 82.3604C97.7647 79.7279 96.6225 76.7738 96.3037 73.4981C96.6958 69.2775 98.9017 66.5597 102.921 65.3448Z" fill="#2C302D"/>
<path opacity="0.926" fill-rule="evenodd" clip-rule="evenodd" d="M69.3624 75.2705C74.6833 76.0206 79.213 78.3052 82.9513 82.124C86.2568 86.4446 87.281 91.2501 86.0235 96.54C83.4932 101.921 79.2787 104.088 73.38 103.039C69.114 101.531 66.1599 98.6552 64.5177 94.4131C63.1808 90.6637 63.1018 86.8825 64.2813 83.0693C64.8719 80.5108 65.9354 78.187 67.4718 76.0977C68.0999 75.7484 68.7302 75.4726 69.3624 75.2705ZM69.8351 79.0518C73.7687 80.0531 77.1955 81.9437 80.1153 84.7236C82.4663 87.837 83.254 91.3032 82.4786 95.1221C80.407 99.2266 77.2165 100.448 72.9073 98.7852C67.9373 95.2209 66.2436 90.4548 67.8263 84.4873C68.3814 82.6243 69.0509 80.8124 69.8351 79.0518Z" fill="#2C302D"/>
<path opacity="0.922" fill-rule="evenodd" clip-rule="evenodd" d="M16.8975 86.1416C24.8161 86.6568 28.755 90.9107 28.7139 98.9033C28.8084 102.519 27.7449 105.749 25.5234 108.593C23.4856 111.183 21.083 113.349 18.3154 115.092C16.7297 115.666 15.2329 115.508 13.8252 114.619C9.55737 110.731 7.03653 105.926 6.2627 100.203C6.37098 97.6151 6.9618 95.1337 8.03516 92.7588C9.72226 91.8262 10.8645 92.2594 11.4619 94.0586C9.40248 98.7164 9.83574 103.167 12.7617 107.411C13.8148 108.859 14.9571 110.237 16.1885 111.547C19.6725 109.716 22.3115 106.999 24.1055 103.394C25.2557 100.134 25.177 96.904 23.8691 93.7041C21.528 90.1537 18.3375 89.1295 14.2979 90.6318C12.376 90.2679 11.9034 89.2044 12.8799 87.4414C14.1799 86.7847 15.5191 86.3512 16.8975 86.1416Z" fill="#2C302D"/>
</g>
<defs>
<clipPath id="clip0_38_144">
<rect width="121" height="121" fill="white"/>
</clipPath>
</defs>
</svg>
