<svg width="50" height="50" viewBox="0 0 50 50" fill="none" xmlns="http://www.w3.org/2000/svg">
<circle cx="25" cy="25" r="25" fill="white"/>
<path d="M23.418 0.107384C17.4414 0.449181 11.709 3.04684 7.36326 7.37301C2.29491 12.4218 -0.341814 19.375 0.107405 26.4941C0.224593 28.3105 0.400374 29.5019 0.830061 31.1914C1.25975 32.9101 1.70897 34.1113 2.6367 35.9961C3.86717 38.5156 5.39061 40.6445 7.37303 42.6269C11.3867 46.6406 16.6992 49.209 22.2656 49.8047C23.7402 49.9707 26.582 49.9414 28.0762 49.7558C38.5254 48.4668 47.0508 40.7031 49.3652 30.4004C50.3613 25.9277 50.039 20.7714 48.4863 16.5332C48.291 16.0058 47.7832 14.8632 47.3633 13.9941C44.4922 8.13473 39.5019 3.6816 33.291 1.46481C31.3867 0.771446 28.916 0.253868 27.0508 0.146446C25.1172 0.0292587 24.7168 0.0292587 23.418 0.107384ZM39.7754 12.9296C40.2832 13.1347 40.625 13.6132 40.625 14.1113C40.625 14.6191 35.791 36.0449 35.5957 36.4355C35.3418 36.9238 34.8828 37.1582 34.2187 37.1582C33.5449 37.1582 33.9355 37.3925 28.3691 33.6132L25.9277 31.9629L24.0234 33.7597C22.9785 34.7558 22.0019 35.625 21.8555 35.7031C21.3574 35.9668 20.6933 35.83 20.293 35.3808C20.1953 35.2734 19.5019 33.3691 18.7402 31.1425C17.9883 28.916 17.3535 27.0898 17.3437 27.08C17.334 27.0703 15.6347 26.6015 13.5742 26.0351C9.40428 24.8925 9.37498 24.873 9.37498 24.1211C9.37498 23.8672 9.44334 23.6621 9.59959 23.4961C9.76561 23.3007 12.8613 22.1484 24.3164 18.0273C32.2949 15.1562 38.9648 12.8027 39.1406 12.7929C39.3164 12.7929 39.5996 12.8515 39.7754 12.9296Z" fill="#1C8ADB"/>
<path d="M27.0932 21.5118C22.0639 24.3927 19.1342 26.131 19.0463 26.2775C18.9194 26.4825 18.9975 26.7755 20.0034 29.7931C20.6088 31.5997 21.1362 33.0841 21.1752 33.0841C21.2143 33.0841 21.3705 32.0978 21.517 30.8868C21.6635 29.6759 21.8002 28.6212 21.8295 28.5529C21.8588 28.4845 24.9057 25.9454 28.6166 22.9181C33.9291 18.5822 35.3452 17.3712 35.3256 17.215C35.3061 17.1075 35.228 17.0099 35.1498 17.0001C35.0717 16.9806 31.4487 19.0118 27.0932 21.5118Z" fill="#1C8ADB"/>
</svg>
