<svg width="123" height="142" viewBox="0 0 123 142" fill="none" xmlns="http://www.w3.org/2000/svg">
<path opacity="0.957" fill-rule="evenodd" clip-rule="evenodd" d="M24.9153 0.0729837C26.5002 -0.173145 27.9003 0.203256 29.1155 1.20219C45.8224 19.3474 53.675 40.9904 52.6731 66.1314C52.7235 70.8616 52.5409 75.5666 52.1253 80.2464C50.9686 83.4459 48.8382 85.6414 45.7337 86.8335C43.2095 87.3544 40.6529 87.5426 38.0637 87.3981C38.1247 102.454 38.0637 117.511 37.8811 132.566C36.9147 136.259 34.7839 138.956 31.4895 140.659C25.3807 142.95 20.3283 141.507 16.3323 136.33C15.7023 135.136 15.2154 133.881 14.8714 132.566C14.6887 117.511 14.6279 102.454 14.6887 87.3981C10.6979 88.0319 7.04552 87.2163 3.73171 84.9515C2.41121 83.5893 1.37639 82.0208 0.627221 80.2464C0.211657 75.5666 0.0290399 70.8616 0.0793692 66.1314C-0.911037 40.2798 7.36762 18.2603 24.9153 0.0729837ZM26.011 8.35381C26.9446 8.74655 27.7359 9.3739 28.385 10.2358C40.2884 24.8752 46.3754 41.8132 46.6468 61.05C46.9809 66.7133 46.8593 72.3593 46.2815 77.988C45.612 79.1801 44.699 80.1211 43.5423 80.811C41.7402 81.2477 39.914 81.4359 38.0637 81.3756C38.1415 70.387 34.9761 60.5377 28.5676 51.8281C26.1625 50.6831 24.2755 51.2477 22.9065 53.522C17.3315 61.9131 14.5923 71.1978 14.6887 81.3756C12.8385 81.4359 11.0124 81.2477 9.21023 80.811C8.05364 80.1211 7.14055 79.1801 6.47097 77.988C5.68009 67.931 5.92359 57.8939 7.20144 47.8759C9.79088 32.7536 16.0607 19.5796 26.011 8.35381ZM26.011 60.6736C26.3747 60.6412 26.6791 60.7669 26.9241 61.05C30.2861 67.3814 31.9296 74.1566 31.8548 81.3756C28.2024 81.3756 24.5501 81.3756 20.8977 81.3756C20.8307 73.9982 22.5351 67.0976 26.011 60.6736ZM20.5325 87.3981C24.4283 87.3981 28.3241 87.3981 32.22 87.3981C32.22 89.4054 32.22 91.4131 32.22 93.4205C28.3241 93.4205 24.4283 93.4205 20.5325 93.4205C20.5325 91.4131 20.5325 89.4054 20.5325 87.3981ZM20.5325 99.4429C24.4283 99.4429 28.3241 99.4429 32.22 99.4429C32.281 109.481 32.22 119.518 32.0374 129.555C30.8734 134.766 27.8906 136.334 23.0891 134.26C21.6713 133.031 20.8799 131.463 20.7151 129.555C20.5325 119.518 20.4716 109.481 20.5325 99.4429Z" fill="#2C302D"/>
<path opacity="0.968" fill-rule="evenodd" clip-rule="evenodd" d="M71.6651 12.1178C72.9354 11.9989 74.1531 12.1871 75.3175 12.6824C78.7101 16.1859 80.8405 20.3892 81.7091 25.2918C81.8307 33.3216 81.9527 41.3517 82.0743 49.3815C82.9264 50.009 83.7789 50.6361 84.631 51.2635C84.7526 42.6063 84.8746 33.9491 84.9962 25.2918C85.8665 20.3881 87.997 16.1848 91.3878 12.6824C92.8487 11.9296 94.3097 11.9296 95.7706 12.6824C98.5785 15.7711 100.587 19.347 101.797 23.4098C102.266 32.6787 102.51 41.9634 102.527 51.2635C103.38 50.6361 104.232 50.009 105.084 49.3815C105.206 41.3517 105.328 33.3216 105.449 25.2918C106.32 20.3881 108.45 16.1848 111.841 12.6824C113.837 11.7233 115.603 12.0372 117.137 13.6234C120.033 16.9579 121.859 20.8473 122.615 25.2918C122.963 34.7173 122.841 44.1273 122.25 53.5219C121.235 56.87 119.653 59.8812 117.502 62.5556C112.642 66.6278 107.65 70.5176 102.527 74.224C102.345 76.6047 102.284 78.9885 102.345 81.3756C103.609 81.2424 104.522 81.7441 105.084 82.8812C105.328 99.4429 105.328 116.005 105.084 132.566C104.118 136.259 101.987 138.956 98.6925 140.659C92.5836 142.95 87.5313 141.506 83.5352 136.33C82.9052 135.135 82.4184 133.881 82.0743 132.566C81.8307 116.005 81.8307 99.4429 82.0743 82.8812C82.6364 81.7441 83.5495 81.2424 84.8136 81.3756C84.8742 78.9885 84.8136 76.6047 84.631 74.224C79.5085 70.5176 74.5169 66.6278 69.6563 62.5556C67.0752 59.3678 65.3707 55.7291 64.5431 51.6399C64.2994 42.8574 64.2994 34.0744 64.5431 25.2918C65.6022 20.093 67.9763 15.7015 71.6651 12.1178ZM72.7608 20.775C73.1246 20.7427 73.4288 20.8684 73.6739 21.1514C74.427 22.7278 75.0359 24.3587 75.5001 26.0446C75.9471 34.9439 76.1904 43.8518 76.2306 52.7691C76.3672 53.1139 76.5498 53.4278 76.7784 53.7101C79.7003 55.7175 82.6222 57.7252 85.544 59.7325C87.005 60.4854 88.4659 60.4854 89.9268 59.7325C90.1555 59.4502 90.3381 59.1363 90.4747 58.7915C90.5963 49.1305 90.7183 39.4697 90.8399 29.8087C90.8282 26.7195 91.5587 23.8337 93.0313 21.1514C93.3966 20.6497 93.7618 20.6497 94.127 21.1514C94.8802 22.7278 95.489 24.3587 95.9532 26.0446C96.4087 36.9516 96.6519 47.8673 96.6837 58.7915C97.2421 59.9268 98.1552 60.4285 99.4229 60.2971C100.202 60.2915 100.933 60.1033 101.614 59.7325C104.536 57.7252 107.458 55.7175 110.38 53.7101C110.609 53.4278 110.791 53.1139 110.928 52.7691C110.968 43.8518 111.211 34.9439 111.658 26.0446C112.123 24.3587 112.731 22.7278 113.484 21.1514C113.747 20.7935 114.051 20.731 114.398 20.9632C116.012 23.6669 116.804 26.6153 116.772 29.8087C117.015 35.7057 117.015 41.6024 116.772 47.4995C116.663 52.6799 114.654 56.8832 110.745 60.109C106.606 63.1202 102.466 66.1314 98.3272 69.1426C95.1618 69.3936 91.9966 69.3936 88.8311 69.1426C83.5714 65.4794 78.5188 61.5272 73.6739 57.2859C71.6366 54.3756 70.5409 51.1133 70.3868 47.4995C70.1432 41.6024 70.1432 35.7057 70.3868 29.8087C70.3832 26.5607 71.1746 23.5495 72.7608 20.775ZM90.6573 75.3532C92.6051 75.3532 94.5533 75.3532 96.5011 75.3532C96.5011 77.3605 96.5011 79.3683 96.5011 81.3756C94.5533 81.3756 92.6051 81.3756 90.6573 81.3756C90.6573 79.3683 90.6573 77.3605 90.6573 75.3532ZM87.7354 87.398C91.6314 87.398 95.527 87.398 99.4229 87.398C99.4229 89.4054 99.4229 91.4131 99.4229 93.4205C95.527 93.4205 91.6314 93.4205 87.7354 93.4205C87.7354 91.4131 87.7354 89.4054 87.7354 87.398ZM87.7354 99.4429C91.6314 99.4429 95.527 99.4429 99.4229 99.4429C99.4839 109.481 99.4229 119.518 99.2403 129.555C98.0763 134.766 95.0935 136.334 90.2921 134.26C88.8742 133.031 88.0828 131.463 87.9181 129.555C87.7354 119.518 87.6744 109.481 87.7354 99.4429Z" fill="#2C302D"/>
</svg>
