<svg width="139" height="139" viewBox="0 0 139 139" fill="none" xmlns="http://www.w3.org/2000/svg">
<g clip-path="url(#clip0_75_158)">
<path d="M78.3233 0.190048C74.3596 0.705872 70.776 2.87775 69.9344 5.23965C69.7172 5.86407 69.4729 7.73732 69.3914 9.42052C69.1743 14.0629 68.0612 18.8682 66.8395 20.6328C66.4594 21.1486 64.8577 22.859 63.283 24.4336C58.5049 29.1846 57.5547 31.6551 58.1248 38.0078C58.2877 39.9625 58.3692 41.6186 58.3149 41.6729C58.152 41.8629 54.7856 39.5281 54.0254 38.6865C53.4553 38.0621 53.3467 37.7363 53.401 36.3518C53.4825 33.4197 54.6498 30.4334 56.876 27.5285C58.5321 25.3567 58.0977 24.1621 55.0571 22.6418C44.4149 17.2936 25.4653 17.2393 14.5245 22.5604C11.3209 24.135 10.9409 25.3024 12.8684 27.8815C14.8231 30.4877 15.7461 32.7953 16.1534 35.9717C16.3977 37.9264 15.7461 38.7137 11.4024 41.7C2.06333 48.1342 -0.244291 52.5051 0.108639 62.9844C0.461568 73.8981 2.57915 86.4678 7.30297 105.879L9.47485 114.702L11.0495 116.195C15.8547 120.729 24.8137 122.982 36.759 122.629C44.7407 122.412 49.8446 121.326 54.6498 118.829C56.876 117.688 59.618 115.435 59.9981 114.431C60.2967 113.671 63.826 99.0104 64.8848 94.2051C65.3735 92.0332 65.8078 90.2143 65.8621 90.16C65.9164 90.1057 66.3508 90.35 66.8395 90.7301C67.3282 91.1102 68.2512 91.6803 68.9028 92.0061C69.5272 92.3318 70.043 92.6576 70.043 92.7662C70.043 92.8477 69.7444 93.4449 69.3643 94.0693C69.0114 94.6938 68.3869 96.1869 67.9797 97.3543C66.9752 100.286 66.9481 104.739 67.9526 108.594C69.6358 115.082 73.6537 122.385 79.6264 129.77C83.6987 134.765 84.866 135.878 86.7393 136.421C91.7617 137.86 98.9561 139 102.92 139C107.182 139 113.046 138.131 118.041 136.774L121.109 135.959L123.145 133.706C131.643 124.367 137.588 113.752 138.729 105.879C139.624 99.7434 138.24 95.101 134.385 91.1916C132.077 88.8568 130.014 87.6895 126.865 86.9565L124.883 86.4949V81.4725V76.4772L123.77 75.4455C123.145 74.8754 121.598 73.8709 120.295 73.1922C115.815 70.9117 111.119 69.8529 104.25 69.5815L100.015 69.4186L100.775 63.9617C102.187 53.9168 103.951 39.5281 104.141 36.6504C104.467 31.4379 103.436 29.0488 98.9289 24.5422C97.2729 22.8861 95.5897 21.0672 95.2096 20.4699C93.9879 18.5967 93.0106 14.0086 92.6305 8.49747C92.4405 5.67403 92.3047 5.04962 91.7346 4.20802C89.7528 1.24884 83.7801 -0.542953 78.3233 0.190048ZM83.753 4.91388C85.8705 5.29396 88.0153 6.37988 87.9067 7.0043C87.8524 7.24864 87.3366 7.71017 86.7664 8.03595C83.7258 9.74631 77.1287 9.50197 74.6582 7.62872C74.0881 7.16721 74.061 7.05861 74.3868 6.62424C75.6899 5.07678 80.1694 4.23517 83.753 4.91388ZM76.6944 13.357C79.192 14.0358 83.9973 13.9272 86.5493 13.0856L88.2325 12.5426L88.341 13.1399C88.3953 13.4385 88.5854 14.5516 88.7483 15.5561C89.2369 18.4881 90.3229 21.5287 91.4903 23.2934C92.0875 24.1893 93.7436 25.9811 95.1282 27.257C97.0557 29.0217 97.9244 30.0262 98.5217 31.275C98.9832 32.1981 99.3633 33.0668 99.3633 33.2297C99.3633 33.6098 96.5399 34.7229 93.6621 35.5373C89.4541 36.7047 86.7121 37.0033 81.0381 37.0033C74.7397 37.0033 71.0746 36.4875 66.4323 34.8586C64.9119 34.3428 63.4459 33.827 63.2016 33.7455C62.55 33.5555 62.5772 33.3654 63.4731 31.5465C63.9889 30.4334 65.102 29.1031 67.4639 26.7412C69.8801 24.325 70.9389 23.0762 71.509 21.8817C72.2692 20.2799 73.3823 16.1805 73.708 13.7643C73.8438 12.6512 73.9524 12.4883 74.3325 12.6512C74.5768 12.7598 75.6627 13.0856 76.6944 13.357ZM43.3018 23.8906C46.7496 24.4879 49.8989 25.3567 49.5188 25.5738C49.0301 25.8996 44.9307 26.8498 42.3516 27.2842C40.6955 27.5285 37.9807 27.6914 34.75 27.6914C31.5194 27.6914 28.8045 27.5285 27.1485 27.2842C24.5694 26.8498 20.47 25.8996 19.9813 25.601C19.384 25.2209 26.334 23.6734 30.2163 23.3477C33.7184 23.0219 39.7454 23.2934 43.3018 23.8906ZM23.8092 31.3836C30.4877 32.7139 39.0123 32.7139 45.6909 31.3836C47.537 31.0035 49.2473 30.6235 49.4916 30.5149C49.8446 30.3791 49.8446 30.5692 49.4102 31.9809C48.6229 34.5057 48.46 37.1119 48.9758 38.8766C49.6002 41.0213 51.1748 42.6502 55.4643 45.5822C57.4733 46.9397 59.8352 48.84 60.7854 49.7902C62.4957 51.582 64.0432 54.3512 64.1518 55.8172C64.2061 56.5502 64.1246 56.6045 62.0342 57.2289C58.9664 58.0977 53.5368 59.075 48.46 59.618C42.3245 60.2967 27.1756 60.2967 21.0401 59.618C15.9633 59.075 10.5336 58.0977 7.46586 57.2289C5.37543 56.6045 5.29399 56.5502 5.34829 55.8172C5.45688 54.3512 7.00434 51.582 8.71469 49.8174C9.63774 48.84 12.0268 46.9397 14.0629 45.5551C20.1442 41.3742 21.2844 39.5553 20.66 34.9943C20.4971 33.6912 20.1713 32.1166 19.9541 31.4922C19.5741 30.4334 19.6012 30.352 19.9813 30.5149C20.2256 30.6235 21.9631 31.0035 23.8092 31.3836ZM99.2547 39.5553C99.1733 40.1254 99.0375 41.157 98.9561 41.8358L98.7932 43.1117L95.8883 44.0619C91.8975 45.3922 89.5899 45.8266 84.8932 46.2066C78.269 46.7496 71.6719 45.9623 65.7807 43.9262C63.6903 43.2203 63.2559 42.976 63.2287 42.5145C63.2287 42.1887 63.1202 41.2385 63.0116 40.3697C62.8758 39.3381 62.903 38.8223 63.093 38.8223C63.2559 38.8223 64.369 39.1481 65.5635 39.501C75.1198 42.4873 87.608 42.433 96.8657 39.3924C98.1688 38.958 99.2819 38.6051 99.309 38.5779C99.3633 38.5508 99.3362 39.0123 99.2547 39.5553ZM98.1416 48.9215C98.0873 49.2744 97.5172 53.3195 96.8928 57.9619C96.2955 62.5772 95.644 67.2195 95.4811 68.2512L95.1553 70.1244L92.7119 70.7217C90.0785 71.3461 87.7981 72.1334 85.9791 73.0564C84.0787 74.0338 81.7983 75.7441 81.4725 76.45C81.2825 76.8844 81.1739 78.8934 81.1739 81.8254V86.5492L79.3006 87.0107C78.269 87.2551 76.6129 87.8795 75.6356 88.3682L73.8438 89.2641L71.6176 88.1238L69.3643 87.0107L68.7127 82.667L68.0612 78.3504L68.6856 72.4863C69.12 68.5498 69.3372 65.0205 69.3643 61.627C69.3643 55.9801 69.0928 54.4869 67.4911 51.1748C66.9752 50.1432 66.5952 49.2473 66.6495 49.193C66.6766 49.1387 67.4639 49.3016 68.3869 49.5459C76.5586 51.6635 87.6352 51.4192 96.1055 48.8943C98.386 48.2428 98.3045 48.2156 98.1416 48.9215ZM6.67856 61.7627C8.6061 62.3328 14.3344 63.4459 17.6465 63.9074C23.5649 64.749 28.3973 64.9662 37.4106 64.8033C48.27 64.6133 53.1295 64.0703 61.8442 62.007C63.3916 61.6541 64.7219 61.3555 64.7762 61.3555C64.9391 61.3555 64.8848 63.5545 64.6676 64.749L64.4776 65.8078L62.3057 66.4322C59.2651 67.3281 53.7268 68.3055 48.8129 68.8756C42.9489 69.5272 26.5784 69.5272 20.7414 68.8756C15.8819 68.3326 10.2079 67.301 7.19438 66.4322C4.75102 65.7264 4.72387 65.6721 4.64243 62.7672C4.61528 61.1654 4.64243 61.1654 6.67856 61.7627ZM8.63325 71.509C17.4565 73.5451 22.0989 73.9795 34.75 73.9795C47.4284 73.9795 52.0436 73.5451 60.9211 71.509C62.55 71.1289 63.9346 70.8846 64.0161 70.966C64.2061 71.1561 63.6903 74.984 62.5772 81.5811C61.2198 89.6441 59.9166 95.8883 57.7991 104.521C55.9258 112.204 55.8987 112.259 54.8942 113.155C52.9395 114.892 48.7043 116.575 44.062 117.417C40.7227 118.041 32.6596 118.259 28.6416 117.824C22.9948 117.254 17.8094 115.625 15.0674 113.535L13.71 112.53L12.0268 105.879C11.1038 102.214 9.88208 96.8928 9.25766 94.0693C7.30297 84.866 5.02251 70.8574 5.48403 70.8574C5.61977 70.8574 7.03149 71.1561 8.63325 71.509ZM111.716 75.0383C114.431 75.717 117.743 76.9115 118.177 77.3459C118.503 77.6717 114.838 79.1377 112.069 79.8164C108.431 80.7123 103.517 81.0381 99.6077 80.6852C95.834 80.3322 93.2006 79.735 89.8885 78.459L87.608 77.5631L88.5311 77.0744C90.0514 76.26 94.4494 74.9025 96.92 74.5225C98.4946 74.251 100.775 74.1695 104.114 74.2238C108.214 74.3324 109.435 74.441 111.716 75.0383ZM92.9563 84.2959C100.856 86.3049 110.603 85.7076 118.041 82.7756C119.127 82.3412 120.078 81.9883 120.132 81.9883C120.213 81.9883 120.268 83.2643 120.268 84.8389V87.6895L119.209 88.341C111.689 93.092 95.7526 93.2549 87.5537 88.694L85.9248 87.7709L85.8434 84.7846L85.7619 81.7982L88.0967 82.7213C89.3727 83.2371 91.5446 83.943 92.9563 84.2959ZM83.5629 91.7346C85.8705 93.3635 90.0514 94.9652 94.2594 95.8611C97.9244 96.6484 105.309 96.8385 109.435 96.2684C114.512 95.5625 119.182 93.9879 122.141 92.0061C123.254 91.2459 123.525 91.1645 124.91 91.3002C126.973 91.4902 129.362 92.6576 131.018 94.3408C133.57 96.8656 134.575 99.7705 134.303 103.707C133.788 110.738 129.199 119.535 121.001 129.145L118.639 131.887L115.191 132.729C110.223 133.896 107.671 134.222 102.893 134.195C98.386 134.195 95.291 133.788 90.4043 132.593C87.228 131.806 87.7438 132.186 83.7801 127.462C71.1832 112.34 68.2241 98.7117 76.3686 93.3092C78.0246 92.1961 80.6309 91.2459 81.934 91.2188C82.4498 91.2188 83.1828 91.4359 83.5629 91.7346Z" fill="#E4E7E4"/>
</g>
<defs>
<clipPath id="clip0_75_158">
<rect width="139" height="139" fill="white"/>
</clipPath>
</defs>
</svg>
